<svg xmlns="http://www.w3.org/2000/svg" viewBox="0 0 160 168"><rect width="160" height="168" fill="none"/><path d="M41.08,91.14h2.43v12.62H40.63V95.88L37,100.77h-.25l-3.66-4.89v7.88H30.17V91.14h2.43l4.24,5.64,4.24-5.64Zm55.67,7.93,3.1,4.54v.14h-3L94,99.49H90.84v4.27H88V91.14h6.76a4.78,4.78,0,0,1,2.25.53,4,4,0,0,1,1.59,1.48,4.09,4.09,0,0,1,.58,2.17A4,4,0,0,1,96.76,99.07Zm-.5-3.71a1.5,1.5,0,0,0-.52-1.19,2,2,0,0,0-1.35-.45H90.84V97h3.53a2,2,0,0,0,1.35-.45A1.52,1.52,0,0,0,96.25,95.36ZM69,93.81h4.33v10h2.88v-10h4.33V91.14H69Zm58.83,5.55a3,3,0,0,1-1.23,1.41,4.13,4.13,0,0,1-4,0,3.29,3.29,0,0,1-1.29-1.38,4.28,4.28,0,0,1-.44-2,4.34,4.34,0,0,1,.43-2,3.26,3.26,0,0,1,1.26-1.38,4,4,0,0,1,4,0,3,3,0,0,1,1.23,1.41l2.42-1.39A5.3,5.3,0,0,0,128,91.79a7.3,7.3,0,0,0-6.93,0,5.92,5.92,0,0,0-2.29,2.36,6.91,6.91,0,0,0-.8,3.32,6.82,6.82,0,0,0,.81,3.3,6,6,0,0,0,2.32,2.37,7.33,7.33,0,0,0,7,0,5.33,5.33,0,0,0,2.2-2.37Zm-20.61,4.4h2.88V91.14h-2.88Zm-52.34-5h4.6V96.1h-4.6V93.81h7.21V91.14H52v12.62H62.3v-2.67H54.91ZM43.05,70.09H40V83.66h3Zm-7.72,5.09h-3v8.48h3ZM128,70.09h-3V83.66h3ZM58.49,73.83h-3v9.83h3Zm15.44,1.35h-3v8.48h3Zm23.15-1.35H94v9.83h3ZM47.73,83.66h3V64h-3Zm72.5-9.83h-3v9.83h3Zm-18.48,9.83h3V70.09h-3Zm7.72,0h3V64h-3Zm-46.31,0h3V70.09h-3ZM89.36,64h-3V83.66h3ZM78.61,83.66h3V70.09h-3Z" fill="#222"/></svg>