<svg xmlns="http://www.w3.org/2000/svg" viewBox="0 0 160 168"><rect width="160" height="168" fill="none"/><path d="M46.84,76.88,42.65,93.11h-3.4l-2.49-9.6a19.89,19.89,0,0,1-.41-2.12h0a18.85,18.85,0,0,1-.41,2.12l-2.49,9.6H30L25.92,76.89h3l2.56,11.23a14.21,14.21,0,0,1,.27,1.71h0a12.6,12.6,0,0,1,.3-1.71l2.93-11.23h2.56l2.88,11.22a12.59,12.59,0,0,1,.3,1.71h0a14.68,14.68,0,0,1,.27-1.71L43.8,76.88Zm15.27,0L59.43,88.11a14.39,14.39,0,0,0-.27,1.71h0a13.24,13.24,0,0,0-.3-1.71L55.94,76.89H53.38L50.45,88.11a12.64,12.64,0,0,0-.3,1.71h0a15.18,15.18,0,0,0-.27-1.71l-1.92-8.41-1.44,6.13,1.82,7.28h3.41l2.49-9.6a19.57,19.57,0,0,0,.41-2.13h0a19.08,19.08,0,0,0,.41,2.13l2.49,9.6H61l4.19-16.23Zm-43.41,0,5.71,16.22h-3L20,89H14.31l-1.37,4.16h-3l5.71-16.22Zm.57,9.66-1.44-4.34c-.3-.92-.64-2.51-.64-2.51h0s-.37,1.6-.69,2.51L15,86.55Zm93.83.51,3.34,6.06h-3.29l-3.22-6.06h-2.84v6.05h-2.95V76.88h5.23a7.45,7.45,0,0,1,3.27.46,4.58,4.58,0,0,1,2.65,4.43,4.68,4.68,0,0,1-2.74,4.44v0A4,4,0,0,1,113.1,87.06Zm-.8-5.13c0-1.55-.66-2.51-3-2.51h-2.24V84.5h2.65A2.35,2.35,0,0,0,112.3,81.94Zm23,3c0,5.12-3.27,8.14-8.27,8.14h-5.53V76.89H127C132,76.89,135.27,79.86,135.27,85Zm-3,0c0-3.61-2.15-5.55-5.39-5.55h-2.42V90.57h2.42C130.14,90.57,132.23,88.63,132.23,85Zm10-3.7c0-1.14,1.08-1.94,2.45-1.94a5.94,5.94,0,0,1,3.59,1.42l1.28-2.4a6.9,6.9,0,0,0-4.85-1.74c-3.11,0-5.44,2-5.44,4.71,0,5,7.66,4.48,7.66,7.38,0,1.33-1.12,2-2.36,2a6.5,6.5,0,0,1-4-1.71L139,91.18a7.86,7.86,0,0,0,5.6,2.21c3.38,0,5.35-2.17,5.35-4.75C149.9,83.45,142.27,84.16,142.27,81.28Zm-48.2-4.39,5.72,16.23h-3L95.37,89H89.68l-1.37,4.16h-3L91,76.88Zm.57,9.67L93.2,82.21c-.3-.92-.64-2.51-.64-2.51h0s-.37,1.6-.68,2.51l-1.44,4.34Zm-16.9,1.56a14.5,14.5,0,0,0-.27,1.71h0a12.09,12.09,0,0,0-.29-1.71L74.24,76.89H71.69L68.76,88.11a12.45,12.45,0,0,0-.3,1.71h0a14.35,14.35,0,0,0-.27-1.71l-1.93-8.44L64.78,85.8l1.84,7.32H70l2.49-9.6a19.78,19.78,0,0,0,.41-2.12h0a19.35,19.35,0,0,0,.41,2.12l2.49,9.6h3.4l4.19-16.23h-3Z" fill="#222"/></svg>