<svg version="1.1" xmlns="http://www.w3.org/2000/svg" viewBox="0 0 205 72">
<path fill="#FFFFFF" d="M0,0.5h7.8V38H0V0.5z M28,0.5L35.7,38h6.7L36.3,0.5H28z M42.7,38h6.8l7.7-37.6h-8.3L42.7,38z M98.8,3.3
	c-1.3-1.1-2.7-1.9-4.2-2.5C93,0.3,91.4,0,89.8,0s-3.2,0.3-4.7,0.8c-1.6,0.6-2.9,1.4-4.2,2.5c-1.3,1.1-2.3,2.5-3.1,4.2
	c-0.8,1.7-1.1,3.6-1.1,5.8V38h7.8V13.3c0-1.9,0.5-3.3,1.6-4.2c1-0.9,2.3-1.3,3.7-1.3s2.7,0.4,3.7,1.3c1,0.9,1.6,2.3,1.6,4.2V38h7.8
	V13.3c0-2.2-0.4-4.1-1.1-5.8C101,5.8,100,4.4,98.8,3.3z M151.5,16.5c0,3.2-0.5,5.9-1.5,8.2c-1,2.2-2.7,4.1-5.2,5.4l2.7,7.9h-7.8
	l-2-6.3h-4.7V38h-7.8V0.5h12.6C146.9,0.5,151.5,5.8,151.5,16.5z M143.7,16.3c0-1.4-0.1-2.6-0.2-3.6c-0.2-1-0.5-2-0.9-2.7
	c-1-1.4-2.8-2.1-5.5-2.1h-4.1v17h4.4c1.4,0,2.5-0.2,3.3-0.6c0.8-0.4,1.5-0.9,1.9-1.6c0.4-0.7,0.7-1.6,0.8-2.6
	C143.6,18.9,143.7,17.7,143.7,16.3z M189.2,0.5L183,22.1h-0.2l-6.3-21.7h-8.3L179,31.9V38h7.8v-6.1l10.7-31.5H189.2z"/>
<path fill="#FFFFFF" d="M18.2,57H26v14.5h-7.8V57z M57.3,71.5h6.9l3-14.5H54.4L57.3,71.5z M113.3,58.7c0,1.9-0.5,3.3-1.6,4.2
	c-1,0.9-2.3,1.3-3.7,1.3s-2.7-0.4-3.7-1.3c-1-0.9-1.6-2.3-1.6-4.2V57H95v1.7c0,2.3,0.4,4.3,1.1,5.9s1.8,3,3.1,4.1
	c1.2,1.1,2.6,2,4.2,2.5c1.6,0.6,3.1,0.8,4.7,0.8s3.2-0.3,4.7-0.8c1.6-0.6,3-1.4,4.2-2.5c1.2-1.1,2.2-2.4,3-4.1
	c0.8-1.6,1.1-3.6,1.1-5.9V57h-7.8V58.7z M143.4,71.5h7.8V57h-7.8V71.5z M197.2,57v14.5h7.8V57H197.2z M158.6,71.5h7.8V57h-7.8V71.5z
	"/>
<path opacity="0.5" fill="#FFFFFF" d="M7.8,38L26,57h-7.8L0,38H7.8z M35.7,38l18.7,19h12.9L49.4,38H35.7z M76.8,38L95,57h7.9
	L84.5,38H76.8z M95,38l18.3,19h7.8l-18.2-19H95z M125.1,38l18.2,19h7.9l-18.3-19H125.1z M139.6,38l19,19h7.9l-19.3-19H139.6z
	 M186.8,38H179l18.2,19h7.8L186.8,38z"/>
</svg>
