<?xml version="1.0" standalone="no"?>
<!DOCTYPE svg PUBLIC "-//W3C//DTD SVG 1.1//EN" "http://www.w3.org/Graphics/SVG/1.1/DTD/svg11.dtd" >
<svg xmlns="http://www.w3.org/2000/svg">
<defs>
  <font id="ivory-icons" horiz-adv-x="7796.875">
    <font-face font-family="ivory-icons"
      units-per-em="1000" ascent="1000"
      descent="0" />
    <missing-glyph horiz-adv-x="0" />
    <glyph glyph-name="3d-rotation"
      unicode="&#xEA01;"
      horiz-adv-x="1000" d="M313.5416666666667 105A436.9583333333333 436.9583333333333 0 0 0 64.7916666666667 458.3333333333334H2.2916666666667C23.5416666666667 201.6666666666668 238.125 0 500.2083333333334 0L527.7083333333334 1.2500000000001L368.9583333333333 160L313.5416666666667 105zM350.625 376.6666666666667C342.7083333333334 376.6666666666667 335.2083333333334 377.9166666666667 328.9583333333334 380A44.583333333333336 44.583333333333336 0 0 0 312.2916666666667 390C307.7083333333334 394.1666666666667 303.9583333333334 399.1666666666668 301.4583333333334 405.4166666666667C298.9583333333334 411.25 297.7083333333334 417.9166666666667 297.7083333333334 425H243.5416666666667C243.5416666666667 410 246.4583333333334 396.6666666666667 252.2916666666667 385.4166666666668C258.1250000000001 374.1666666666668 266.0416666666668 364.5833333333334 275.6250000000001 356.6666666666668C285.6250000000001 349.1666666666668 296.8750000000001 343.3333333333334 309.7916666666668 339.5833333333334C322.2916666666668 335.4166666666668 335.6250000000001 333.3333333333334 349.7916666666667 333.3333333333334C365.2083333333333 333.3333333333334 379.7916666666668 335.4166666666668 392.7083333333334 339.5833333333334C406.0416666666667 343.75 417.7083333333333 350 427.2916666666667 357.9166666666668S444.7916666666667 375.8333333333334 450.2083333333334 387.9166666666668C455.6250000000001 400 458.5416666666667 413.3333333333334 458.5416666666667 428.3333333333334C458.5416666666667 436.2500000000001 457.7083333333334 444.1666666666668 455.625 451.6666666666667A69.58333333333333 69.58333333333333 0 0 1 446.0416666666667 472.9166666666667C441.875 479.5833333333334 436.0416666666667 485.4166666666667 429.375 490.8333333333334C422.2916666666667 496.2500000000001 413.9583333333333 500.4166666666667 403.9583333333333 503.7500000000001A87.41666666666666 87.41666666666666 0 0 1 441.0416666666667 535.0000000000001C445.2083333333333 541.2500000000001 448.125 547.5000000000001 450.2083333333334 554.1666666666667C452.2916666666667 560.8333333333335 453.1250000000001 567.5000000000001 453.1250000000001 574.1666666666667C453.1250000000001 589.1666666666667 450.6250000000001 602.5000000000001 445.6250000000001 614.1666666666667A74.16666666666666 74.16666666666666 0 0 1 424.3750000000001 642.9166666666667C416.0416666666668 650.8333333333334 404.7916666666668 656.6666666666667 392.2916666666668 660.8333333333335C379.375 664.5833333333333 365.2083333333333 666.6666666666667 349.7916666666667 666.6666666666667C334.7916666666668 666.6666666666667 321.0416666666668 664.5833333333333 308.1250000000001 660C295.6250000000001 655.4166666666667 284.3750000000001 649.1666666666667 275.2083333333334 641.25C266.4583333333334 633.3333333333334 259.3750000000001 624.1666666666667 253.9583333333334 613.3333333333334C248.9583333333334 602.5 246.4583333333334 590.8333333333334 246.4583333333334 577.9166666666667H300.6250000000001C300.6250000000001 585 301.8750000000001 591.25 304.3750000000001 596.6666666666667S310.2083333333334 607.0833333333334 314.7916666666668 610.8333333333334C319.3750000000001 614.5833333333334 324.3750000000001 617.9166666666667 330.6250000000001 620C336.875 622.0833333333335 343.1250000000001 623.3333333333334 350.625 623.3333333333334C367.2916666666667 623.3333333333334 379.7916666666667 619.1666666666667 387.7083333333334 610.4166666666667C395.625 602.0833333333335 399.7916666666667 590 399.7916666666667 574.5833333333334C399.7916666666667 567.0833333333335 398.5416666666667 560.4166666666667 396.4583333333333 554.1666666666667A36.25 36.25 0 0 0 386.0416666666667 538.7500000000001C381.4583333333334 534.5833333333335 375.625 531.2500000000001 368.9583333333333 528.75C362.2916666666667 526.25 353.9583333333334 525.0000000000001 344.7916666666667 525.0000000000001H312.7083333333334V482.0833333333335H344.7916666666667C353.9583333333334 482.0833333333335 362.2916666666667 481.2500000000001 369.7916666666667 479.1666666666667S383.5416666666667 473.7500000000001 388.5416666666667 469.5833333333334C393.5416666666666 465.0000000000001 397.7083333333333 459.5833333333334 400.625 452.9166666666667C403.5416666666666 446.2500000000001 404.7916666666666 438.3333333333334 404.7916666666666 429.1666666666668C404.7916666666666 412.0833333333334 399.7916666666667 399.1666666666668 390.2083333333333 390.4166666666668C380.6249999999999 380.8333333333334 367.2916666666666 376.6666666666668 350.625 376.6666666666668zM706.875 623.3333333333333C693.5416666666667 637.0833333333333 677.7083333333334 647.9166666666666 659.375 655.4166666666666C641.4583333333334 662.9166666666666 621.0416666666666 666.6666666666666 598.5416666666666 666.6666666666666H500.2083333333334V333.3333333333334H596.0416666666667C618.9583333333334 333.3333333333334 640.2083333333334 337.0833333333334 658.9583333333334 344.5833333333334C677.7083333333334 352.0833333333334 693.9583333333334 362.5 707.2916666666666 376.25C720.625 390 731.0416666666666 406.6666666666668 738.1249999999999 425.8333333333334C745.2083333333333 445.4166666666667 748.9583333333333 467.0833333333334 748.9583333333333 491.25V507.9166666666667C748.9583333333333 532.0833333333333 745.2083333333333 553.75 738.1249999999999 573.3333333333334C730.6249999999999 592.9166666666667 720.2083333333333 609.5833333333333 706.8749999999999 623.3333333333333zM690.625 491.6666666666666C690.625 474.1666666666666 688.5416666666666 458.75 684.7916666666666 444.5833333333333C680.6249999999999 430.8333333333333 674.7916666666667 418.75 666.875 409.1666666666667C658.9583333333334 399.5833333333333 648.9583333333334 392.0833333333333 637.2916666666666 387.0833333333334C625.2083333333334 382.0833333333334 611.4583333333334 379.5833333333334 596.0416666666666 379.5833333333334H558.125V620H598.5416666666666C628.5416666666666 620 651.4583333333333 610.4166666666667 666.875 591.25C682.7083333333333 572.0833333333334 690.625 544.5833333333334 690.625 508.3333333333334V491.6666666666667zM500.2083333333334 1000L472.7083333333333 998.75L631.4583333333334 840L686.875 895.4166666666667C823.125 830.8333333333334 920.625 698.75 935.2083333333334 542.0833333333334H997.7083333333334C976.875 798.3333333333334 762.2916666666666 1000 500.2083333333334 1000z" />
    <glyph glyph-name="500px"
      unicode="&#xEA02;"
      horiz-adv-x="0" d="" />
    <glyph glyph-name="ac-unit"
      unicode="&#xEA03;"
      horiz-adv-x="1000" d="M916.6666666666666 541.6666666666667H742.9166666666665L877.9166666666666 676.6666666666667L819.1666666666666 735.8333333333334L625 541.6666666666667H541.6666666666666V625L735.8333333333333 819.1666666666667L676.6666666666667 877.9166666666667L541.6666666666666 742.9166666666667V916.6666666666666H458.3333333333334V742.9166666666667L323.3333333333334 877.9166666666666L264.1666666666667 819.1666666666667L458.3333333333334 625V541.6666666666667H375.0000000000001L180.8333333333334 735.8333333333334L122.0833333333334 676.6666666666667L257.0833333333334 541.6666666666667H83.3333333333334V458.3333333333334H257.0833333333334L122.0833333333334 323.3333333333333L180.8333333333334 264.1666666666665L375.0000000000001 458.3333333333334H458.3333333333334V375L264.1666666666667 180.8333333333334L323.3333333333334 122.0833333333334L458.3333333333334 257.0833333333335V83.3333333333334H541.6666666666666V257.0833333333335L676.6666666666667 122.0833333333334L735.8333333333335 180.8333333333334L541.6666666666666 375V458.3333333333334H625L819.1666666666666 264.1666666666668L877.9166666666666 323.3333333333333L742.9166666666665 458.3333333333334H916.6666666666666z" />
    <glyph glyph-name="access-alarm"
      unicode="&#xEA04;"
      horiz-adv-x="1000" d="M916.6666666666666 761.6666666666667L724.9999999999999 922.5L671.2499999999999 858.75L862.9166666666666 697.9166666666667L916.6666666666666 761.6666666666667zM328.3333333333334 858.75L275 922.5L83.3333333333334 762.0833333333334L137.0833333333334 698.3333333333333L328.3333333333334 858.75zM520.8333333333333 666.6666666666667H458.3333333333334V416.6666666666668L656.25 297.9166666666667L687.5 349.1666666666667L520.8333333333333 447.9166666666668V666.6666666666667zM500.0000000000001 833.3333333333334C292.9166666666668 833.3333333333334 125.0000000000001 665.4166666666666 125.0000000000001 458.3333333333334S292.5 83.3333333333334 500.0000000000001 83.3333333333334A374.99999999999994 374.99999999999994 0 0 1 500.0000000000001 833.3333333333334zM500.0000000000001 166.6666666666668C338.75 166.6666666666668 208.3333333333334 297.0833333333334 208.3333333333334 458.3333333333334S338.75 750 500.0000000000001 750S791.6666666666666 619.5833333333334 791.6666666666666 458.3333333333334S661.25 166.6666666666668 500.0000000000001 166.6666666666668z" />
    <glyph glyph-name="access-alarms"
      unicode="&#xEA05;"
      horiz-adv-x="1000" d="M916.6666666666666 762.5L724.9999999999999 925L670.8333333333333 862.5L862.4999999999998 700L916.6666666666666 762.5zM329.1666666666668 858.3333333333334L275 920.8333333333334L83.3333333333334 762.5L137.5 700L329.1666666666667 858.3333333333333zM520.8333333333333 666.6666666666667H458.3333333333334V416.6666666666668L654.1666666666666 295.8333333333335L687.5 345.8333333333334L520.8333333333333 445.8333333333334V666.6666666666667zM500.0000000000001 833.3333333333334C291.6666666666667 833.3333333333334 125.0000000000001 666.6666666666667 125.0000000000001 458.3333333333334S291.6666666666667 83.3333333333334 500.0000000000001 83.3333333333334S875 250 875 458.3333333333334S708.3333333333333 833.3333333333334 500.0000000000001 833.3333333333334zM500.0000000000001 166.6666666666668C337.5 166.6666666666668 208.3333333333334 295.8333333333335 208.3333333333334 458.3333333333334S337.5 750 500.0000000000001 750S791.6666666666666 620.8333333333334 791.6666666666666 458.3333333333334S662.5 166.6666666666668 500.0000000000001 166.6666666666668z" />
    <glyph glyph-name="access-time"
      unicode="&#xEA06;"
      horiz-adv-x="1000" d="M499.5833333333334 916.6666666666666C269.5833333333334 916.6666666666666 83.3333333333334 730 83.3333333333334 500S269.5833333333334 83.3333333333334 499.5833333333334 83.3333333333334C729.9999999999999 83.3333333333334 916.6666666666666 270.0000000000001 916.6666666666666 500S729.9999999999999 916.6666666666666 499.5833333333334 916.6666666666666zM500.0000000000001 166.6666666666668C315.8333333333334 166.6666666666668 166.6666666666667 315.8333333333333 166.6666666666667 500S315.8333333333334 833.3333333333334 500.0000000000001 833.3333333333334S833.3333333333333 684.1666666666667 833.3333333333333 500S684.1666666666667 166.6666666666668 500.0000000000001 166.6666666666668zM520.8333333333333 708.3333333333334H458.3333333333334V458.3333333333334L677.0833333333333 327.0833333333335L708.3333333333333 378.3333333333335L520.8333333333333 489.5833333333334z" />
    <glyph glyph-name="accessibility"
      unicode="&#xEA07;"
      horiz-adv-x="1000" d="M500 916.6666666666666C545.8333333333333 916.6666666666666 583.3333333333333 879.1666666666666 583.3333333333333 833.3333333333334S545.8333333333333 750 500 750S416.6666666666667 787.5 416.6666666666667 833.3333333333334S454.1666666666666 916.6666666666666 500 916.6666666666666zM875 625H625V83.3333333333334H541.6666666666666V333.3333333333334H458.3333333333333V83.3333333333334H375V625H125V708.3333333333334H875V625z" />
    <glyph glyph-name="accessible-icon"
      unicode="&#xEA08;"
      horiz-adv-x="875" d="M827.9268475973894 500.390625L802.7315350973894 193.1640625C796.2862225973894 113.671875 677.9268475973894 124.6093749999999 684.3721600973894 202.7343749999999L703.9034100973894 441.9921874999999L623.6299725973893 437.4999999999999C643.3565350973894 397.0703124999999 654.4893475973893 351.7578124999999 654.4893475973893 303.7109374999999C654.4893475973893 223.2421874999999 623.0440350973893 149.9999999999999 571.8721600973893 95.7031249999999L495.1143475973893 172.4609374999999C608.2002850973893 296.8749999999999 520.7002850973893 499.0234374999999 350.5830975973893 499.0234374999999C299.9971600973893 499.0234374999999 253.9034100973893 479.6874999999999 219.3330975973893 448.2421874999999L142.5752850973894 525C185.5440350973894 565.4296875 240.4268475973894 593.5546875 301.5596600973894 603.515625L448.6299725973894 770.8984375L365.4268475973894 819.3359375L264.6455975973894 729.4921875C206.0518475973894 677.1484375 126.7549725973894 765.625 185.5440350973894 818.1640625L318.3565350973894 936.71875C337.4971600973894 953.90625 365.4268475973894 956.640625 387.6924725973894 943.75C387.6924725973894 943.75 659.7627850973894 785.7421875 660.1534100973894 785.3515625C691.7940350973894 765.625 700.5830975973894 715.0390625 672.0674725973894 682.6171875L558.0049725973894 552.734375L765.2315350973893 564.2578125C801.3643475973893 566.40625 830.8565350973894 536.1328125 827.9268475973894 500.390625zM701.1690350973894 801.171875C756.0518475973894 801.171875 800.5830975973894 845.703125 800.5830975973894 900.5859375C800.5830975973894 955.46875 756.0518475973894 1000 701.1690350973894 1000C646.2862225973894 1000 601.7549725973894 955.46875 601.7549725973894 900.5859375C601.7549725973894 845.703125 646.2862225973895 801.171875 701.1690350973894 801.171875zM350.7784100973894 108.3984375C193.3565350973894 108.3984375 101.9502850973894 285.3515625 189.2549725973894 413.28125L111.7159100973894 490.8203125C71.0909100973894 439.453125 46.8721600973894 374.4140625 46.8721600973894 303.90625C46.8721600973894 48.6328125000001 341.2080975973894 -89.453125 537.8877850973894 64.6484375L460.3487225973894 142.1875C429.0987225973894 120.8984375000001 391.4034100973894 108.3984375 350.7784100973894 108.3984375z" />
    <glyph glyph-name="accessible"
      unicode="&#xEA09;"
      horiz-adv-x="1000" d="M416.6399484789689 833.3333333333334A83.33333333333333 83.33333333333333 0 0 1 583.3066151456355 833.3333333333334A83.33333333333333 83.33333333333333 0 0 1 416.6399484789689 833.3333333333334M791.6399484789689 458.3333333333334V541.6666666666667C727.4732818123023 540.8333333333334 662.8899484789689 572.9166666666667 622.0566151456355 617.9166666666667L568.3066151456356 677.5C561.2232818123023 685.4166666666667 552.4732818123023 691.6666666666667 542.8899484789689 696.25C542.4732818123023 696.25 542.4732818123023 696.6666666666667 542.0566151456356 696.6666666666667H541.6399484789689C527.0566151456356 705 510.3899484789689 709.1666666666667 492.0566151456356 707.5C448.3066151456357 703.75 416.6399484789689 665 416.6399484789689 621.25V375C416.6399484789689 329.1666666666667 454.1399484789689 291.6666666666668 499.9732818123023 291.6666666666668H708.3066151456355V83.3333333333334H791.6399484789689V312.5C791.6399484789689 358.3333333333334 754.1399484789689 395.8333333333334 708.3066151456355 395.8333333333334H583.3066151456355V539.5833333333333C637.0566151456355 495 718.7232818123023 458.75 791.6399484789689 458.3333333333334zM534.5566151456355 250C517.4732818123023 201.6666666666668 471.2232818123023 166.6666666666668 416.6399484789689 166.6666666666668C347.4732818123023 166.6666666666668 291.6399484789689 222.5 291.6399484789689 291.6666666666668C291.6399484789689 346.2500000000001 326.6399484789689 392.0833333333334 374.9732818123023 409.5833333333334V495.8333333333334A208.33333333333334 208.33333333333334 0 1 1 620.8066151456355 250H534.5566151456355z" />
    <glyph glyph-name="account-balance-wallet"
      unicode="&#xEA0A;"
      horiz-adv-x="1000" d="M854.1666666666667 250V208.3333333333334C854.1666666666667 162.5 816.6666666666667 125 770.8333333333334 125H187.5A83.33333333333333 83.33333333333333 0 0 0 104.1666666666667 208.3333333333334V791.6666666666667A83.33333333333333 83.33333333333333 0 0 0 187.5 875H770.8333333333334C816.6666666666667 875 854.1666666666667 837.5 854.1666666666667 791.6666666666667V750H479.1666666666667A83.33333333333333 83.33333333333333 0 0 1 395.8333333333333 666.6666666666667V333.3333333333334A83.33333333333333 83.33333333333333 0 0 1 479.1666666666667 250H854.1666666666667zM479.1666666666667 333.3333333333334H895.8333333333334V666.6666666666667H479.1666666666667V333.3333333333334zM645.8333333333334 437.5C611.25 437.5 583.3333333333334 465.4166666666667 583.3333333333334 500S611.25 562.5 645.8333333333334 562.5S708.3333333333334 534.5833333333334 708.3333333333334 500S680.4166666666666 437.5 645.8333333333334 437.5z" />
    <glyph glyph-name="account-balance"
      unicode="&#xEA0B;"
      horiz-adv-x="1000" d="M187.5 583.3333333333334V291.6666666666668H312.5V583.3333333333334H187.5zM437.5 583.3333333333334V291.6666666666668H562.5V583.3333333333334H437.5zM104.1666666666667 83.3333333333334H895.8333333333334V208.3333333333334H104.1666666666667V83.3333333333334zM687.5 583.3333333333334V291.6666666666668H812.5V583.3333333333334H687.5zM500 958.3333333333334L104.1666666666667 750V666.6666666666667H895.8333333333334V750L500 958.3333333333334z" />
    <glyph glyph-name="account-box"
      unicode="&#xEA0C;"
      horiz-adv-x="1000" d="M125 791.6666666666667V208.3333333333334A83.33333333333333 83.33333333333333 0 0 1 208.3333333333333 125H791.6666666666666C837.5 125 875 162.5 875 208.3333333333334V791.6666666666667C875 837.5 837.5 875 791.6666666666666 875H208.3333333333333A83.33333333333333 83.33333333333333 0 0 1 125 791.6666666666667zM625 625C625 555.8333333333334 569.1666666666666 500 500 500S375 555.8333333333334 375 625S430.8333333333333 750 500 750S625 694.1666666666667 625 625zM250 291.6666666666668C250 375 416.6666666666667 420.8333333333334 500 420.8333333333334S750 375 750 291.6666666666668V250H250V291.6666666666668z" />
    <glyph glyph-name="account-circle"
      unicode="&#xEA0D;"
      horiz-adv-x="1000" d="M500.0000000000001 916.6666666666666C270.0000000000001 916.6666666666666 83.3333333333334 730 83.3333333333334 500S270.0000000000001 83.3333333333334 500.0000000000001 83.3333333333334S916.6666666666666 270.0000000000001 916.6666666666666 500S729.9999999999999 916.6666666666666 500.0000000000001 916.6666666666666zM500.0000000000001 791.6666666666667C569.1666666666666 791.6666666666667 625 735.8333333333334 625 666.6666666666667S569.1666666666666 541.6666666666667 500.0000000000001 541.6666666666667S375.0000000000001 597.5 375.0000000000001 666.6666666666667S430.8333333333334 791.6666666666667 500.0000000000001 791.6666666666667zM500.0000000000001 200.0000000000001A300 300 0 0 0 250.0000000000001 334.1666666666668C251.2500000000001 417.0833333333335 416.6666666666667 462.5000000000001 500.0000000000001 462.5000000000001C582.9166666666666 462.5000000000001 748.7499999999999 417.0833333333335 750 334.1666666666668A300 300 0 0 0 500.0000000000001 200.0000000000001z" />
    <glyph glyph-name="accusoft"
      unicode="&#xEA0E;"
      horiz-adv-x="1250" d="M941.694663362621 273.2421875C930.561850862621 286.71875 488.1790383626211 853.515625 473.1399758626211 872.0703125C446.3821633626212 905.6640625 473.1399758626211 904.8828125 510.6399758626211 905.078125C529.5852883626211 905.2734375 718.2571633626211 906.25 738.1790383626211 906.25C785.2493508626211 906.4453125 794.2337258626211 905.078125 813.1790383626211 881.25C817.2806008626211 875.9765625 1213.7649758626212 401.171875 1217.866538362621 396.2890625C1228.608725862621 383.203125 1247.5540383626212 358.9843749999999 1231.9290383626212 350.5859375C1227.2415383626212 348.046875 1008.100913362621 257.421875 1001.850913362621 255.078125C982.124350862621 247.265625 967.671225862621 241.796875 941.694663362621 273.2421875000001M1165.7181008626212 284.1796875000001S941.108725862621 185.7421875000001 936.225913362621 183.3984375000001C904.975913362621 169.140625 883.6868508626211 189.6484375 864.5462258626211 211.9140625000001L753.022788362621 356.4453125000001C742.4759133626211 358.2031250000001 635.0540383626211 375.1953125000001 625.483725862621 374.6093750000001C619.429038362621 374.2187500000001 606.733725862621 373.0468750000001 597.3587258626211 368.9453125000003C587.7884133626211 364.8437500000001 313.7649758626211 265.8203125000001 303.9993508626211 262.1093750000003C294.0384133626211 258.2031250000003 281.7337258626211 255.0781250000001 282.3196633626211 247.2656250000001C282.7102883626211 242.3828125000001 286.2259133626211 242.1875000000001 291.3040383626211 240.4296875000001C296.5774758626211 238.8671875000001 878.999350862621 108.3984375000002 892.8665383626211 105.4687500000002C923.335288362621 99.0234375000002 968.061850862621 84.9609375000002 997.554038362621 102.1484375000002C1001.655600862621 104.4921875000002 1239.3509133626212 251.3671875000004 1243.2571633626212 254.1015625000003C1253.8040383626212 261.9140625000003 1251.6556008626212 267.3828125000004 1239.9368508626212 270.1171875000003C1235.4446633626212 270.7031250000003 1191.8899758626212 279.2968750000003 1165.7181008626212 284.1796875000003M528.9993508626211 638.2812500000002S505.561850862621 635.1562500000002 480.171225862621 608.7890625000002C462.593100862621 590.6250000000002 7.3196633626211 141.7968750000002 4.7806008626211 138.2812500000002C-8.8912741373789 118.7500000000002 7.9056008626211 125.0000000000002 35.4446633626211 134.9609375000002C37.0071633626211 134.9609375000002 259.0774758626211 206.4453125000004 259.0774758626211 206.4453125000004C260.0540383626211 207.6171875000004 258.8821633626211 206.6406250000004 260.249350862621 207.6171875000004C259.468100862621 217.5781250000005 258.686850862621 258.7890625000004 258.296225862621 261.7187500000004C257.1243508626211 271.8750000000004 262.593100862621 275.1953125000004 271.968100862621 279.1015625000004L452.827475862621 345.1171875000004C453.999350862621 346.6796875000004 625.6790383626211 504.6875000000003 628.999350862621 507.8125000000003V509.7656250000003L528.9993508626211 638.2812500000003" />
    <glyph glyph-name="adb"
      unicode="&#xEA0F;"
      horiz-adv-x="1000" d="M208.3333333333334 333.3333333333334C208.3333333333334 172.0833333333334 338.75 41.6666666666667 500.0000000000001 41.6666666666667S791.6666666666667 172.0833333333334 791.6666666666667 333.3333333333334V500H208.3333333333334V333.3333333333334zM671.6666666666667 817.9166666666667L759.1666666666667 905.4166666666666L725 940L629.1666666666667 843.75C590 863.3333333333334 546.6666666666667 875 500.0000000000001 875S410 863.3333333333334 371.2500000000001 843.75L275 940L240.8333333333334 905.4166666666666L328.3333333333333 817.9166666666667C255.8333333333334 765 208.3333333333334 680 208.3333333333334 583.3333333333334V541.6666666666667H791.6666666666667V583.3333333333334C791.6666666666667 680 744.1666666666667 765 671.6666666666667 817.9166666666667zM375.0000000000001 625C352.0833333333333 625 333.3333333333334 643.75 333.3333333333334 666.6666666666667S352.0833333333333 708.3333333333334 375.0000000000001 708.3333333333334S416.6666666666667 689.5833333333334 416.6666666666667 666.6666666666667S397.9166666666668 625 375.0000000000001 625zM625 625C602.0833333333333 625 583.3333333333333 643.75 583.3333333333333 666.6666666666667S602.0833333333333 708.3333333333334 625 708.3333333333334S666.6666666666667 689.5833333333334 666.6666666666667 666.6666666666667S647.9166666666667 625 625 625z" />
    <glyph glyph-name="add-a-photo"
      unicode="&#xEA10;"
      horiz-adv-x="1000" d="M145.8333333333334 833.3333333333334V958.3333333333334H229.1666666666667V833.3333333333334H354.1666666666667V750H229.1666666666667V625H145.8333333333334V750H20.8333333333334V833.3333333333334H145.8333333333334zM270.8333333333334 583.3333333333334V708.3333333333334H395.8333333333334V833.3333333333334H687.5L763.7499999999999 750H895.8333333333334C941.6666666666669 750 979.1666666666666 712.5 979.1666666666666 666.6666666666667V166.6666666666668C979.1666666666666 120.8333333333334 941.6666666666669 83.3333333333334 895.8333333333334 83.3333333333334H229.1666666666667C183.3333333333334 83.3333333333334 145.8333333333334 120.8333333333334 145.8333333333334 166.6666666666668V583.3333333333334H270.8333333333334zM562.5 208.3333333333334C677.5 208.3333333333334 770.8333333333334 301.6666666666668 770.8333333333334 416.6666666666668S677.5 625 562.5 625S354.1666666666667 531.6666666666667 354.1666666666667 416.6666666666668S447.5 208.3333333333334 562.5 208.3333333333334zM429.1666666666667 416.6666666666668C429.1666666666667 342.9166666666668 488.7500000000001 283.3333333333334 562.5 283.3333333333334S695.8333333333333 342.9166666666668 695.8333333333333 416.6666666666668S636.25 550 562.5 550S429.1666666666667 490.4166666666667 429.1666666666667 416.6666666666668z" />
    <glyph glyph-name="add-alarm"
      unicode="&#xEA11;"
      horiz-adv-x="1000" d="M328.3333333333334 858.75L275 922.5L83.3333333333334 762.0833333333334L137.0833333333334 698.3333333333333L328.3333333333334 858.75zM916.6666666666666 761.6666666666667L724.9999999999999 922.5L671.2499999999999 858.75L862.9166666666666 697.9166666666667L916.6666666666666 761.6666666666667zM500.0000000000001 833.3333333333334C292.9166666666668 833.3333333333334 125.0000000000001 665.4166666666666 125.0000000000001 458.3333333333334S292.5 83.3333333333334 500.0000000000001 83.3333333333334A374.99999999999994 374.99999999999994 0 0 1 500.0000000000001 833.3333333333334zM500.0000000000001 166.6666666666668C338.75 166.6666666666668 208.3333333333334 297.0833333333334 208.3333333333334 458.3333333333334S338.75 750 500.0000000000001 750S791.6666666666666 619.5833333333334 791.6666666666666 458.3333333333334S661.25 166.6666666666668 500.0000000000001 166.6666666666668zM541.6666666666666 625H458.3333333333334V500H333.3333333333334V416.6666666666668H458.3333333333334V291.6666666666668H541.6666666666666V416.6666666666668H666.6666666666666V500H541.6666666666666V625z" />
    <glyph glyph-name="add-alert"
      unicode="&#xEA12;"
      horiz-adv-x="1000" d="M417.0833333333333 124.5833333333334C417.0833333333333 78.7499999999999 454.1666666666666 41.6666666666667 500 41.6666666666667S582.9166666666666 78.7500000000001 582.9166666666666 124.5833333333334H417.0833333333333zM786.6666666666666 299.1666666666668V541.6666666666667C786.6666666666666 677.0833333333334 692.9166666666666 790.4166666666666 566.25 820.4166666666667V850.4166666666667C566.25 887.0833333333334 536.6666666666666 916.6666666666666 500 916.6666666666666S433.75 887.0833333333334 433.75 850.4166666666667V820.4166666666667A286.37499999999994 286.37499999999994 0 0 1 213.3333333333333 541.6666666666667V299.1666666666668L125 210.8333333333334V166.6666666666668H875V210.8333333333334L786.6666666666666 299.1666666666668zM666.6666666666666 457.9166666666667H541.6666666666666V332.9166666666668H458.3333333333333V457.9166666666667H333.3333333333333V541.6666666666667H458.3333333333333V666.6666666666667H541.6666666666666V541.6666666666667H666.6666666666666V457.9166666666667z" />
    <glyph glyph-name="add-box"
      unicode="&#xEA13;"
      horiz-adv-x="1000" d="M791.6666666666666 875H208.3333333333333A83.33333333333333 83.33333333333333 0 0 1 125 791.6666666666667V208.3333333333334A83.33333333333333 83.33333333333333 0 0 1 208.3333333333333 125H791.6666666666666C837.5 125 875 162.5 875 208.3333333333334V791.6666666666667C875 837.5 837.5 875 791.6666666666666 875zM708.3333333333333 458.3333333333334H541.6666666666666V291.6666666666668H458.3333333333333V458.3333333333334H291.6666666666667V541.6666666666667H458.3333333333333V708.3333333333334H541.6666666666666V541.6666666666667H708.3333333333333V458.3333333333334z" />
    <glyph glyph-name="add-circle-outline"
      unicode="&#xEA14;"
      horiz-adv-x="1000" d="M541.6666666666666 708.3333333333334H458.3333333333334V541.6666666666667H291.6666666666667V458.3333333333334H458.3333333333334V291.6666666666668H541.6666666666666V458.3333333333334H708.3333333333333V541.6666666666667H541.6666666666666V708.3333333333334zM500.0000000000001 916.6666666666666C270.0000000000001 916.6666666666666 83.3333333333334 730 83.3333333333334 500S270.0000000000001 83.3333333333334 500.0000000000001 83.3333333333334S916.6666666666666 270.0000000000001 916.6666666666666 500S729.9999999999999 916.6666666666666 500.0000000000001 916.6666666666666zM500.0000000000001 166.6666666666668C316.2500000000001 166.6666666666668 166.6666666666667 316.25 166.6666666666667 500S316.2500000000001 833.3333333333334 500.0000000000001 833.3333333333334S833.3333333333333 683.75 833.3333333333333 500S683.75 166.6666666666668 500.0000000000001 166.6666666666668z" />
    <glyph glyph-name="add-circle"
      unicode="&#xEA15;"
      horiz-adv-x="1000" d="M500.0000000000001 916.6666666666666C270.0000000000001 916.6666666666666 83.3333333333334 730 83.3333333333334 500S270.0000000000001 83.3333333333334 500.0000000000001 83.3333333333334S916.6666666666666 270.0000000000001 916.6666666666666 500S729.9999999999999 916.6666666666666 500.0000000000001 916.6666666666666zM708.3333333333333 458.3333333333334H541.6666666666666V291.6666666666668H458.3333333333334V458.3333333333334H291.6666666666667V541.6666666666667H458.3333333333334V708.3333333333334H541.6666666666666V541.6666666666667H708.3333333333333V458.3333333333334z" />
    <glyph glyph-name="add-location"
      unicode="&#xEA16;"
      horiz-adv-x="1000" d="M500.0000000000001 916.6666666666666C339.1666666666668 916.6666666666666 208.3333333333334 785.8333333333334 208.3333333333334 625C208.3333333333334 406.25 500.0000000000001 83.3333333333334 500.0000000000001 83.3333333333334S791.6666666666667 406.25 791.6666666666667 625C791.6666666666667 785.8333333333333 660.8333333333333 916.6666666666666 500.0000000000001 916.6666666666666zM666.6666666666667 583.3333333333334H541.6666666666667V458.3333333333334H458.3333333333334V583.3333333333334H333.3333333333334V666.6666666666667H458.3333333333334V791.6666666666667H541.6666666666667V666.6666666666667H666.6666666666667V583.3333333333334z" />
    <glyph glyph-name="add-shopping-cart"
      unicode="&#xEA17;"
      horiz-adv-x="1000" d="M496.6666666666666 625H580V750H705V833.3333333333334H580V958.3333333333334H496.6666666666666V833.3333333333334H371.6666666666667V750H496.6666666666666V625zM330 250C284.1666666666667 250 247.0833333333333 212.5000000000001 247.0833333333333 166.6666666666668S284.1666666666667 83.3333333333334 330 83.3333333333334S413.3333333333333 120.8333333333334 413.3333333333333 166.6666666666668S375.8333333333333 250 330 250zM746.6666666666666 250C700.8333333333334 250 663.75 212.5000000000001 663.75 166.6666666666668S700.8333333333334 83.3333333333334 746.6666666666666 83.3333333333334S830 120.8333333333334 830 166.6666666666668S792.5 250 746.6666666666666 250zM337.0833333333333 385.4166666666668L338.3333333333333 390.4166666666667L375.8333333333333 458.3333333333334H686.25C717.5 458.3333333333334 745 475.4166666666667 759.1666666666667 501.25L920 793.3333333333333L847.5000000000001 833.3333333333334H847.0833333333334L801.2499999999999 750L686.25 541.6666666666667H393.75L388.3333333333333 552.9166666666667L295 750L255.4166666666667 833.3333333333334L216.25 916.6666666666666H80V833.3333333333334H163.3333333333334L313.3333333333333 517.0833333333334L257.0833333333333 415.0000000000001C250.4166666666667 403.3333333333335 246.6666666666667 389.5833333333334 246.6666666666667 375C246.6666666666667 329.1666666666667 284.1666666666667 291.6666666666668 330 291.6666666666668H830V375H347.5C342.0833333333333 375 337.0833333333333 379.5833333333334 337.0833333333333 385.4166666666668z" />
    <glyph glyph-name="add-to-photos"
      unicode="&#xEA18;"
      horiz-adv-x="1000" d="M166.6666666666667 750H83.3333333333334V166.6666666666668C83.3333333333334 120.8333333333334 120.8333333333334 83.3333333333334 166.6666666666667 83.3333333333334H750V166.6666666666668H166.6666666666667V750zM833.3333333333333 916.6666666666666H333.3333333333334C287.5000000000001 916.6666666666666 250.0000000000001 879.1666666666666 250.0000000000001 833.3333333333334V333.3333333333334C250.0000000000001 287.5 287.5000000000001 250 333.3333333333334 250H833.3333333333333C879.1666666666666 250 916.6666666666666 287.5 916.6666666666666 333.3333333333334V833.3333333333334C916.6666666666666 879.1666666666666 879.1666666666666 916.6666666666666 833.3333333333333 916.6666666666666zM791.6666666666666 541.6666666666667H625V375H541.6666666666666V541.6666666666667H375.0000000000001V625H541.6666666666666V791.6666666666667H625V625H791.6666666666666V541.6666666666667z" />
    <glyph glyph-name="add-to-queue"
      unicode="&#xEA19;"
      horiz-adv-x="1000" d="M875 875H125.0000000000001C78.75 875 41.6666666666667 837.9166666666666 41.6666666666667 791.6666666666667V291.6666666666668A83.33333333333333 83.33333333333333 0 0 1 125.0000000000001 208.3333333333334H333.3333333333334V125H666.6666666666666V208.3333333333334H875C920.8333333333334 208.3333333333334 957.9166666666666 245.8333333333334 957.9166666666666 291.6666666666668L958.3333333333331 791.6666666666667A83.33333333333333 83.33333333333333 0 0 1 875 875zM875 291.6666666666668H125.0000000000001V791.6666666666667H875V291.6666666666668zM666.6666666666666 583.3333333333334V500H541.6666666666666V375H458.3333333333334V500H333.3333333333334V583.3333333333334H458.3333333333334V708.3333333333334H541.6666666666666V583.3333333333334H666.6666666666666z" />
    <glyph glyph-name="add"
      unicode="&#xEA1A;"
      horiz-adv-x="1000" d="M791.6666666666667 458.3333333333334H541.6666666666667V208.3333333333334H458.3333333333334V458.3333333333334H208.3333333333334V541.6666666666667H458.3333333333334V791.6666666666667H541.6666666666667V541.6666666666667H791.6666666666667V458.3333333333334z" />
    <glyph glyph-name="adjust"
      unicode="&#xEA1B;"
      horiz-adv-x="1000" d="M500.0000000000001 916.6666666666666C270.4166666666668 916.6666666666666 83.3333333333334 729.5833333333333 83.3333333333334 500S270.4166666666668 83.3333333333334 500.0000000000001 83.3333333333334S916.6666666666666 270.4166666666668 916.6666666666666 500S729.5833333333334 916.6666666666666 500.0000000000001 916.6666666666666zM500.0000000000001 166.6666666666668C316.2500000000001 166.6666666666668 166.6666666666667 316.25 166.6666666666667 500S316.2500000000001 833.3333333333334 500.0000000000001 833.3333333333334S833.3333333333333 683.75 833.3333333333333 500S683.75 166.6666666666668 500.0000000000001 166.6666666666668zM625 500C625 430.8333333333334 569.1666666666666 375 500.0000000000001 375S375.0000000000001 430.8333333333334 375.0000000000001 500S430.8333333333334 625 500.0000000000001 625S625 569.1666666666667 625 500z" />
    <glyph glyph-name="adn"
      unicode="&#xEA1C;"
      horiz-adv-x="968.75" d="M484.375 672.8515625L611.1328125 479.8828125H357.6171875L484.375 672.8515625zM968.75 500C968.75 232.6171875 751.7578125 15.625 484.375 15.625S0 232.6171875 0 500S216.9921875 984.375 484.375 984.375S968.75 767.3828125 968.75 500zM773.828125 338.4765625L484.375 774.4140625L194.921875 338.4765625H254.296875L319.921875 439.453125H649.21875L714.84375 338.4765625H773.828125z" />
    <glyph glyph-name="adversal"
      unicode="&#xEA1D;"
      horiz-adv-x="1000" d="M941.6015625 937.5H56.0546875000001C11.3281250000001 937.5 1e-13 925.9765625 1e-13 881.0546875V118.9453125000001C1e-13 73.4375 11.3281250000001 62.5 56.0546875000001 62.5H941.6015625C989.2578125 62.5 1000 72.65625 1000 120.5078125V878.515625C1000 926.5625 989.453125 937.5 941.6015625 937.5zM348.4375000000001 569.7265625C294.7265625000001 609.1796875 207.6171875000001 586.71875 183.9843750000001 524.0234375C175.5859375000001 502.34375 165.8203125000001 505.4687499999999 149.8046875000001 507.8124999999999C130.8593750000001 510.7421874999999 116.2109375000001 514.0625 105.8593750000001 518.5546875C49.6093750000001 540.8203125 122.6562500000001 626.5624999999999 154.4921875000001 644.1406249999999C234.7656250000001 685.9375 317.3828125000001 687.4999999999999 399.21875 653.515625C479.1015625 620.7031249999999 466.6015625 537.890625 466.6015625 402.5390624999999C471.875 352.1484374999999 458.203125 288.6718749999999 484.7656250000001 229.1015624999999C488.4765625000001 220.5078125 485.5468750000001 213.671875 479.4921875000001 208.2031249999999C463.0859375000001 195.1171875 402.7343750000001 203.90625 388.4765625000001 222.6562499999999C384.7656250000001 226.9531249999999 384.9609375000001 229.6874999999999 380.8593750000001 234.7656249999999C373.8281250000001 242.3828124999998 366.6015625000001 239.0624999999999 357.6171875000001 232.8124999999999C245.5078125000001 161.7187499999999 83.59375 191.0156249999999 70.5078125 317.3828124999999C64.453125 374.6093749999999 94.7265625 428.9062499999999 147.8515625 456.0546874999999C222.4609375 494.1406249999999 366.9921875 479.1015624999999 370.5078125000001 516.4062499999999C372.65625 536.3281249999999 366.796875 555.6640624999999 348.4375 569.7265625zM908.3984375 136.1328125C908.3984375 106.6406249999999 886.71875 116.796875 873.6328125 116.796875H102.3437500000001C87.8906250000001 116.796875 66.7968750000001 107.421875 67.578125 137.6953125C68.359375 164.84375 88.0859375 155.46875 100.9765625 155.46875C359.3750000000001 156.25 617.578125 156.25 875.9765625 155.46875C889.2578125 155.46875 908.3984375 164.0625 908.3984375 136.1328125000001zM915.8203125000002 801.171875V232.8125C915.8203125000002 221.6796875 914.4531250000002 205.6640625 900 205.6640625C875.7812500000002 206.4453125 846.2890625 191.796875 829.4921875 216.6015625000001C818.1640625 233.59375 814.2578125 224.4140625000001 805.2734375 218.9453125C700.9765625000002 160.9375000000001 555.0781250000002 205.078125 523.2421875 385.3515625C511.3281249999999 450.5859375 521.875 516.40625 553.90625 580.6640625C576.953125 627.34375 665.0390625 729.296875 819.7265625 640.234375V778.90625C819.7265625 830.078125 819.5312499999998 830.078125 870.5078125 830.078125C876.5625 830.078125 883.3984375 829.296875 889.453125 830.078125C909.1796875 831.640625 916.015625 821.484375 916.015625 802.1484375C915.8203125 801.7578125 915.8203125 801.5625 915.8203125 801.171875zM815.2343750000002 347.4609375C777.1484375000002 254.4921874999999 672.8515625 262.8906249999999 639.4531250000002 337.3046875C609.9609375 402.34375 609.1796875000002 470.5078125 640.234375 535.546875C672.0703125 602.1484375 756.8359375 605.2734375 799.4140625 544.921875C839.6484375000002 488.671875 828.515625 379.6875 815.2343750000002 347.4609375zM239.4531250000001 278.5156249999999C224.8046875000001 281.0546875 175.0000000000001 284.9609375 173.6328125000001 332.8125C172.8515625000001 359.9609374999999 188.8671875000001 377.734375 212.3046875000001 383.203125C259.9609375000001 394.7265624999999 308.5937500000001 402.5390624999999 356.2500000000001 411.9140625C373.6328125000001 415.8203125 370.7031250000001 403.3203125 371.4843750000002 393.359375C374.2187500000002 328.90625 320.5078125000002 277.734375 239.4531250000002 278.5156249999999z" />
    <glyph glyph-name="affiliatetheme"
      unicode="&#xEA1E;"
      horiz-adv-x="1000" d="M311.9844049446368 536.328125C211.7890924446368 397.8515625 84.2500299446368 319.921875 27.4140924446368 362.109375C-29.6171575553632 404.4921875 5.5390924446368 550.78125 105.9297174446368 689.2578125C206.1250299446368 827.734375 333.6640924446368 905.6640625 390.5000299446368 863.4765625C447.3359674446368 821.2890625 412.1797174446368 674.8046875 311.9844049446368 536.328125zM997.9219049446368 648.2421875C853.7812799446368 407.2265625 623.1172174446368 281.640625 481.3203424446368 367.7734375C432.4922174446368 397.4609375 400.6562799446369 448.2421875 385.6172174446368 511.9140625000001C319.9922174446368 385.3515625 204.3672174446368 289.6484375 65.1094049446368 251.7578125000001C162.3750299446368 135.9375 307.4922174446368 62.5 469.4062799446368 62.5C762.3750299446368 62.5 999.875029944637 302.9296875 999.875029944637 599.4140625C1000.0703424446368 616.015625 999.2890924446368 632.2265625 997.921904944637 648.2421875z" />
    <glyph glyph-name="airline-seat-flat-angled"
      unicode="&#xEA1F;"
      horiz-adv-x="1000" d="M927.1569384035034 404.5833333333334L898.4069384035033 325.8333333333334L383.4069384035033 512.0833333333333L470.0736050701699 747.9166666666666L826.7402717368366 619.1666666666667A166.66666666666666 166.66666666666666 0 0 0 927.1569384035034 404.5833333333334zM62.57360507017 494.1666666666667L333.4069384035033 396.6666666666667V208.3333333333334H666.7402717368366V276.25L855.0736050701698 208.3333333333334L883.8236050701701 287.0833333333334L91.3236050701701 572.9166666666667L62.5736050701701 494.1666666666667zM304.2402717368367 575A125.41666666666664 125.41666666666664 0 0 1 362.9902717368367 741.6666666666666A125.20833333333331 125.20833333333331 0 0 1 195.9069384035034 800A124.58333333333334 124.58333333333334 0 0 1 137.57360507017 633.3333333333333A124.58333333333334 124.58333333333334 0 0 1 304.2402717368367 575z" />
    <glyph glyph-name="airline-seat-flat"
      unicode="&#xEA20;"
      horiz-adv-x="1000" d="M916.6666666666666 541.6666666666667V458.3333333333334H375.0000000000001V708.3333333333334H750C842.0833333333334 708.3333333333334 916.6666666666666 633.75 916.6666666666666 541.6666666666667zM83.3333333333334 416.6666666666668V333.3333333333334H333.3333333333334V250H666.6666666666666V333.3333333333334H916.6666666666666V416.6666666666668H83.3333333333334zM297.5 495.8333333333334A125 125 0 0 1 295.8333333333334 672.5A125 125 0 0 1 119.1666666666667 670.8333333333334A125 125 0 0 1 120.8333333333334 494.1666666666667A125 125 0 0 1 297.5 495.8333333333333z" />
    <glyph glyph-name="airline-seat-individual-suite"
      unicode="&#xEA21;"
      horiz-adv-x="1000" d="M291.6666666666667 458.3333333333334C360.4166666666667 458.3333333333334 416.6666666666667 514.5833333333334 416.6666666666667 583.3333333333334S360.4166666666667 708.3333333333334 291.6666666666667 708.3333333333334S166.6666666666667 652.0833333333334 166.6666666666667 583.3333333333334S222.9166666666667 458.3333333333334 291.6666666666667 458.3333333333334zM791.6666666666666 708.3333333333334H458.3333333333333V416.6666666666668H125V708.3333333333334H41.6666666666667V291.6666666666668H958.3333333333331V541.6666666666667C958.3333333333331 633.75 883.75 708.3333333333334 791.6666666666666 708.3333333333334z" />
    <glyph glyph-name="airline-seat-legroom-extra"
      unicode="&#xEA22;"
      horiz-adv-x="1000" d="M145.8146886271795 500V875H62.4813552938462V500C62.4813552938462 385 155.8146886271795 291.6666666666668 270.8146886271795 291.6666666666668H520.8146886271795V375H270.8146886271795C201.6480219605128 375 145.8146886271795 430.8333333333334 145.8146886271795 500zM930.3980219605128 281.6666666666667C914.5646886271796 311.6666666666667 876.6480219605128 322.0833333333333 845.8146886271794 307.9166666666667L800.3980219605128 287.0833333333333L658.3146886271794 577.9166666666665A83.74999999999999 83.74999999999999 0 0 1 583.7313552938461 624.5833333333333L437.4813552938462 625V875H187.4813552938462V541.6666666666667C187.4813552938462 472.5 243.3146886271795 416.6666666666668 312.4813552938462 416.6666666666668H604.1480219605129L746.2313552938461 125L901.2313552938461 195.8333333333334C933.3146886271794 210.8333333333334 947.0646886271796 250 930.3980219605128 281.6666666666667z" />
    <glyph glyph-name="airline-seat-legroom-normal"
      unicode="&#xEA23;"
      horiz-adv-x="1000" d="M187.5 500V875H104.1666666666667V500C104.1666666666667 385 197.5 291.6666666666668 312.5 291.6666666666668H562.5V375H312.5C243.3333333333333 375 187.5 430.8333333333334 187.5 500zM833.3333333333333 250H770.8333333333333V541.6666666666667C770.8333333333333 587.5 733.3333333333333 625 687.5 625H479.1666666666667V875H229.1666666666667V541.6666666666667C229.1666666666667 472.9166666666666 285.4166666666667 416.6666666666668 354.1666666666667 416.6666666666668H645.8333333333333V125H833.3333333333333C867.9166666666665 125 895.8333333333333 152.9166666666668 895.8333333333333 187.5S867.9166666666665 250 833.3333333333333 250z" />
    <glyph glyph-name="airline-seat-legroom-reduced"
      unicode="&#xEA24;"
      horiz-adv-x="1000" d="M852.9699120411562 200.0000000000001C860.4699120411562 160 830.0532453744895 125 791.7199120411562 125H604.2199120411562V250L645.886578707823 416.6666666666668H395.886578707823C327.136578707823 416.6666666666668 270.886578707823 472.9166666666666 270.886578707823 541.6666666666667V875H520.886578707823V625H729.2199120411562C775.0532453744896 625 812.5532453744896 587.5 812.5532453744896 541.6666666666667L729.2199120411562 250H789.2199120411564C819.636578707823 250 847.136578707823 229.5833333333335 852.9699120411564 200.0000000000001zM229.2199120411563 500V875H145.886578707823V500C145.886578707823 385 239.2199120411564 291.6666666666668 354.2199120411563 291.6666666666668H520.886578707823V375H354.2199120411563C285.0532453744896 375 229.2199120411563 430.8333333333334 229.2199120411563 500z" />
    <glyph glyph-name="airline-seat-recline-extra"
      unicode="&#xEA25;"
      horiz-adv-x="1000" d="M222.9166666666667 765C185.4166666666667 791.6666666666667 176.25 843.3333333333334 202.5 881.25C228.75 918.75 280.8333333333334 927.9166666666669 318.75 901.6666666666669C356.25 875 365.4166666666667 823.3333333333334 339.1666666666667 785.4166666666667C312.5 747.9166666666667 260.8333333333333 738.75 222.9166666666666 765zM666.6666666666666 208.3333333333334H372.0833333333334C310.4166666666667 208.3333333333334 257.9166666666667 253.3333333333333 248.75 314.1666666666667L166.6666666666667 708.3333333333334H83.3333333333334L166.2500000000001 301.6666666666668A208.74999999999997 208.74999999999997 0 0 1 372.5 125H666.6666666666666V208.3333333333334zM676.25 375H472.9166666666667L430.0000000000001 545.8333333333334C495.8333333333334 508.75 566.6666666666667 481.6666666666666 644.5833333333334 495V583.75C576.6666666666667 570.8333333333333 501.2500000000002 595 449.1666666666668 635.8333333333334L380.8333333333334 688.75C371.2500000000001 696.25 360.4166666666668 701.25 349.1666666666668 704.5833333333334A92.08333333333333 92.08333333333333 0 0 1 307.9166666666668 707.0833333333333H307.0833333333335A94.49999999999999 94.49999999999999 0 0 1 230.4166666666668 598.3333333333333L286.6666666666668 351.6666666666667A125.33333333333331 125.33333333333331 0 0 1 409.5833333333334 250H695L854.1666666666666 125L916.6666666666666 187.5L676.25 375z" />
    <glyph glyph-name="airline-seat-recline-normal"
      unicode="&#xEA26;"
      horiz-adv-x="1000" d="M316.25 774.5833333333334C283.75 807.0833333333334 283.75 860 316.25 892.5C348.75 925 401.6666666666668 925 434.1666666666667 892.5C466.6666666666666 860 466.6666666666666 807.0833333333334 434.1666666666667 774.5833333333334C401.25 741.6666666666667 348.75 741.6666666666667 316.25 774.5833333333334zM250.0000000000001 333.3333333333334V708.3333333333334H166.6666666666667V333.3333333333334C166.6666666666667 218.3333333333335 260 125 375 125H625V208.3333333333334H375C305.8333333333334 208.3333333333334 250.0000000000001 264.1666666666668 250.0000000000001 333.3333333333334zM833.3333333333333 163.75L622.0833333333333 375H479.1666666666666V528.3333333333334C537.5 480.4166666666666 629.1666666666666 438.3333333333334 708.3333333333333 438.3333333333334V528.3333333333334C639.1666666666666 527.5 557.9166666666666 564.5833333333333 513.75 613.3333333333333L455.4166666666666 677.9166666666666C447.5 686.6666666666666 437.5 693.75 426.6666666666667 698.75C414.5833333333334 704.5833333333333 400.8333333333334 708.3333333333333 386.6666666666668 708.3333333333333H385.4166666666668C333.75 708.3333333333334 291.6666666666667 666.25 291.6666666666667 614.5833333333334V375C291.6666666666667 305.8333333333334 347.5 250 416.6666666666667 250H627.9166666666666L773.75 104.1666666666667L833.3333333333333 163.75z" />
    <glyph glyph-name="airplanemode-active"
      unicode="&#xEA27;"
      horiz-adv-x="1000" d="M895.8333333333334 333.3333333333334V416.6666666666668L562.5 625V854.1666666666667C562.5 888.75 534.5833333333334 916.6666666666666 500 916.6666666666666S437.5 888.75 437.5 854.1666666666667V625L104.1666666666667 416.6666666666668V333.3333333333334L437.5 437.5V208.3333333333334L354.1666666666667 145.8333333333334V83.3333333333334L500 125L645.8333333333334 83.3333333333334V145.8333333333334L562.5 208.3333333333334V437.5L895.8333333333334 333.3333333333334z" />
    <glyph glyph-name="airplanemode-inactive"
      unicode="&#xEA28;"
      horiz-adv-x="1000" d="M562.5 625V854.1666666666667C562.5 888.75 534.5833333333334 916.6666666666666 500 916.6666666666666S437.5 888.75 437.5 854.1666666666667V700.8333333333334L763.7499999999999 374.5833333333334L895.8333333333334 333.3333333333334V416.6666666666668L562.5 625zM145.8333333333334 780.4166666666667L353.75 572.5L104.1666666666667 416.6666666666668V333.3333333333334L437.5 437.5V208.3333333333334L354.1666666666667 145.8333333333334V83.3333333333334L500 125L645.8333333333334 83.3333333333334V145.8333333333334L562.5 208.3333333333334V363.75L801.25 125L854.1666666666666 177.9166666666668L198.75 833.3333333333334L145.8333333333334 780.4166666666667z" />
    <glyph glyph-name="airplay"
      unicode="&#xEA29;"
      horiz-adv-x="1000" d="M250.0000000000001 83.3333333333334H750L500 333.3333333333334zM875 875H125C79.1666666666667 875 41.6666666666667 837.5 41.6666666666667 791.6666666666667V291.6666666666668C41.6666666666667 245.8333333333334 79.1666666666667 208.3333333333334 125 208.3333333333334H291.6666666666667V291.6666666666668H125V791.6666666666667H875V291.6666666666668H708.3333333333333V208.3333333333334H875C920.8333333333334 208.3333333333334 958.3333333333331 245.8333333333334 958.3333333333331 291.6666666666668V791.6666666666667C958.3333333333331 837.5 920.8333333333334 875 875 875z" />
    <glyph glyph-name="airport-shuttle"
      unicode="&#xEA2A;"
      horiz-adv-x="1000" d="M708.3333333333333 791.6666666666667H125.0000000000001A83.33333333333333 83.33333333333333 0 0 1 41.6666666666667 708.3333333333334V333.3333333333334H125.0000000000001C125.0000000000001 264.5833333333335 180.8333333333334 208.3333333333334 250.0000000000001 208.3333333333334S375.0000000000001 264.5833333333335 375.0000000000001 333.3333333333334H604.1666666666666C604.1666666666666 264.5833333333335 660 208.3333333333334 729.1666666666666 208.3333333333334S854.1666666666666 264.5833333333335 854.1666666666666 333.3333333333334H958.3333333333331V541.6666666666667L708.3333333333333 791.6666666666667zM125.0000000000001 541.6666666666667V708.3333333333334H291.6666666666667V541.6666666666667H125.0000000000001zM250.0000000000001 270.8333333333334C215.4166666666667 270.8333333333334 187.5000000000001 298.7500000000001 187.5000000000001 333.3333333333334S215.4166666666667 395.8333333333334 250.0000000000001 395.8333333333334S312.5000000000001 367.9166666666668 312.5000000000001 333.3333333333334S284.5833333333334 270.8333333333334 250.0000000000001 270.8333333333334zM541.6666666666666 541.6666666666667H375.0000000000001V708.3333333333334H541.6666666666666V541.6666666666667zM729.1666666666666 270.8333333333334C694.5833333333334 270.8333333333334 666.6666666666666 298.7500000000001 666.6666666666666 333.3333333333334S694.5833333333334 395.8333333333334 729.1666666666666 395.8333333333334S791.6666666666666 367.9166666666668 791.6666666666666 333.3333333333334S763.7499999999999 270.8333333333334 729.1666666666666 270.8333333333334zM625 541.6666666666667V708.3333333333334H666.6666666666666L833.3333333333333 541.6666666666667H625z" />
    <glyph glyph-name="alarm-add"
      unicode="&#xEA2B;"
      horiz-adv-x="1000" d="M328.3333333333334 858.75L275 922.5L83.3333333333334 762.0833333333334L137.0833333333334 698.3333333333333L328.3333333333334 858.75zM916.6666666666666 761.6666666666667L724.9999999999999 922.5L671.2499999999999 858.75L862.9166666666666 697.9166666666667L916.6666666666666 761.6666666666667zM500.0000000000001 833.3333333333334C292.9166666666668 833.3333333333334 125.0000000000001 665.4166666666666 125.0000000000001 458.3333333333334S292.5 83.3333333333334 500.0000000000001 83.3333333333334A374.99999999999994 374.99999999999994 0 0 1 500.0000000000001 833.3333333333334zM500.0000000000001 166.6666666666668C338.75 166.6666666666668 208.3333333333334 297.0833333333334 208.3333333333334 458.3333333333334S338.75 750 500.0000000000001 750S791.6666666666666 619.5833333333334 791.6666666666666 458.3333333333334S661.25 166.6666666666668 500.0000000000001 166.6666666666668zM541.6666666666666 625H458.3333333333334V500H333.3333333333334V416.6666666666668H458.3333333333334V291.6666666666668H541.6666666666666V416.6666666666668H666.6666666666666V500H541.6666666666666V625z" />
    <glyph glyph-name="alarm-off"
      unicode="&#xEA2C;"
      horiz-adv-x="1000" d="M507.2916666666667 750C668.5416666666667 750 798.9583333333334 619.5833333333334 798.9583333333334 458.3333333333334C798.9583333333334 423.3333333333334 792.2916666666667 389.5833333333334 781.0416666666667 358.3333333333334L844.375 295C868.5416666666666 344.5833333333333 882.2916666666667 399.5833333333333 882.2916666666667 458.3333333333333A374.99999999999994 374.99999999999994 0 0 1 507.2916666666667 833.3333333333333C448.5416666666667 833.3333333333333 393.5416666666667 819.5833333333333 343.9583333333333 795.4166666666666L407.2916666666667 732.0833333333334C438.5416666666667 743.3333333333333 472.2916666666667 750 507.2916666666667 750zM923.9583333333334 761.6666666666667L732.2916666666666 922.5L678.5416666666666 858.75L870.2083333333334 697.9166666666667L923.9583333333334 761.6666666666667zM128.9583333333334 904.5833333333334L76.0416666666667 851.25L131.4583333333334 795.8333333333334L85.2083333333334 757.0833333333334L144.375 697.9166666666667L190.6250000000001 737.0833333333333L223.9583333333334 703.75A373.5 373.5 0 0 1 132.2916666666667 458.3333333333334C132.2916666666667 251.2500000000001 299.7916666666667 83.3333333333334 507.2916666666667 83.3333333333334C601.0416666666667 83.3333333333334 686.875 117.9166666666666 752.7083333333334 175L844.375 83.3333333333334L897.2916666666666 136.25L169.3750000000001 863.75L128.9583333333334 904.5833333333334zM693.5416666666666 233.75C643.125 192.0833333333334 578.125 166.6666666666668 507.2916666666667 166.6666666666668C346.0416666666667 166.6666666666668 215.625 297.0833333333334 215.625 458.3333333333334C215.625 529.1666666666667 241.0416666666667 594.1666666666667 282.7083333333334 644.5833333333333L693.5416666666666 233.75zM341.4583333333333 863.3333333333334L282.2916666666667 922.5L246.4583333333333 892.9166666666666L305.625 833.75L341.4583333333333 863.3333333333334z" />
    <glyph glyph-name="alarm-on"
      unicode="&#xEA2D;"
      horiz-adv-x="1000" d="M916.6666666666666 761.6666666666667L724.9999999999999 922.5L671.2499999999999 858.75L862.9166666666666 697.9166666666667L916.6666666666666 761.6666666666667zM328.3333333333334 858.75L275 922.5L83.3333333333334 762.0833333333334L137.0833333333334 698.3333333333333L328.3333333333334 858.75zM500.0000000000001 833.3333333333334C292.9166666666668 833.3333333333334 125.0000000000001 665.4166666666666 125.0000000000001 458.3333333333334S292.5 83.3333333333334 500.0000000000001 83.3333333333334A374.99999999999994 374.99999999999994 0 0 1 500.0000000000001 833.3333333333334zM500.0000000000001 166.6666666666668C338.75 166.6666666666668 208.3333333333334 297.0833333333334 208.3333333333334 458.3333333333334S338.75 750 500.0000000000001 750S791.6666666666666 619.5833333333334 791.6666666666666 458.3333333333334S661.25 166.6666666666668 500.0000000000001 166.6666666666668zM439.1666666666667 394.5833333333334L350.4166666666667 483.3333333333334L306.25 439.1666666666667L438.75 306.6666666666667L688.75 556.6666666666667L644.5833333333334 600.8333333333334L439.1666666666668 394.5833333333334z" />
    <glyph glyph-name="alarm"
      unicode="&#xEA2E;"
      horiz-adv-x="1000" d="M916.6666666666666 761.6666666666667L724.9999999999999 922.5L671.2499999999999 858.75L862.9166666666666 697.9166666666667L916.6666666666666 761.6666666666667zM328.3333333333334 858.75L275 922.5L83.3333333333334 762.0833333333334L137.0833333333334 698.3333333333333L328.3333333333334 858.75zM520.8333333333333 666.6666666666667H458.3333333333334V416.6666666666668L656.25 297.9166666666667L687.5 349.1666666666667L520.8333333333333 447.9166666666668V666.6666666666667zM500.0000000000001 833.3333333333334C292.9166666666668 833.3333333333334 125.0000000000001 665.4166666666666 125.0000000000001 458.3333333333334S292.5 83.3333333333334 500.0000000000001 83.3333333333334A374.99999999999994 374.99999999999994 0 0 1 500.0000000000001 833.3333333333334zM500.0000000000001 166.6666666666668C338.75 166.6666666666668 208.3333333333334 297.0833333333334 208.3333333333334 458.3333333333334S338.75 750 500.0000000000001 750S791.6666666666666 619.5833333333334 791.6666666666666 458.3333333333334S661.25 166.6666666666668 500.0000000000001 166.6666666666668z" />
    <glyph glyph-name="album"
      unicode="&#xEA2F;"
      horiz-adv-x="1000" d="M500.0000000000001 916.6666666666666C270.0000000000001 916.6666666666666 83.3333333333334 730 83.3333333333334 500S270.0000000000001 83.3333333333334 500.0000000000001 83.3333333333334S916.6666666666666 270.0000000000001 916.6666666666666 500S729.9999999999999 916.6666666666666 500.0000000000001 916.6666666666666zM500.0000000000001 312.5C396.25 312.5 312.5000000000001 396.25 312.5000000000001 500S396.25 687.5 500.0000000000001 687.5S687.5 603.75 687.5 500S603.75 312.5 500.0000000000001 312.5zM500.0000000000001 541.6666666666667C477.0833333333333 541.6666666666667 458.3333333333334 522.9166666666667 458.3333333333334 500S477.0833333333333 458.3333333333334 500.0000000000001 458.3333333333334S541.6666666666666 477.0833333333334 541.6666666666666 500S522.9166666666666 541.6666666666667 500.0000000000001 541.6666666666667z" />
    <glyph glyph-name="algolia"
      unicode="&#xEA30;"
      horiz-adv-x="875" d="M447.9489422304265 643.359375C351.6598797304265 643.359375 273.7301922304266 565.4296875 273.7301922304266 469.140625C273.7301922304266 372.8515625 351.6598797304266 294.921875 447.9489422304265 294.921875S622.1676922304265 372.8515625 622.1676922304265 469.140625C622.1676922304265 565.4296875 544.0426922304265 643.359375 447.9489422304265 643.359375zM570.4098797304265 532.8125L455.3708172304265 473.046875C451.8551922304264 471.2890625 447.9489422304265 473.8281249999999 447.9489422304265 477.5390625V607.421875C447.9489422304265 610.3515625 450.4880047304265 612.6953125 453.2223797304264 612.5C504.3942547304265 610.546875 548.7301922304265 581.8359375 572.5583172304264 540.0390625C573.9255047304264 537.5 572.9489422304264 534.1796875 570.4098797304264 532.8125zM760.0583172304265 937.5H115.1364422304265C51.6598797304265 937.5 0.0973797304265 885.9375 0.0973797304265 822.4609375V177.734375C0.0973797304265 114.0625 51.6598797304265 62.5 115.1364422304265 62.5H759.8630047304265C823.5348797304265 62.5 874.9020672304265 114.0625 874.9020672304265 177.5390625V822.4609375C875.0973797304265 885.9375 823.5348797304265 937.5 760.0583172304265 937.5zM364.3551922304266 772.0703125C364.3551922304266 793.1640625 381.3473797304266 810.15625 402.4411297304266 810.15625H490.9176922304265C512.0114422304266 810.15625 529.0036297304265 793.1640625 529.0036297304265 772.0703125V741.9921875C529.0036297304265 738.4765625 525.6833172304265 736.1328125 522.5583172304265 737.109375C498.5348797304265 743.75 473.5348797304265 747.0703125 448.1442547304265 747.0703125C421.7770672304265 747.0703125 395.9958172304266 743.5546875 371.1911297304265 736.328125C367.8708172304265 735.3515625 364.5505047304265 737.890625 364.5505047304265 741.2109375V772.0703125zM199.5114422304266 699.8046875L217.4801922304266 717.7734375C232.3239422304265 732.6171875 256.3473797304266 732.6171875 271.1911297304265 717.7734375L286.2301922304265 702.734375C288.3786297304265 700.5859375 288.1833172304265 696.875 285.6442547304265 694.921875C273.5348797304265 686.1328125 262.0114422304265 676.5625 251.2692547304265 665.8203125C240.7223797304265 655.2734375 230.9567547304265 643.75 222.3630047304265 631.8359375C220.4098797304265 629.296875 216.6989422304265 628.90625 214.5505047304265 631.25L199.5114422304265 646.2890625C184.6676922304265 660.9375 184.6676922304265 684.9609375 199.5114422304265 699.8046875zM447.9489422304265 221.6796875C311.2301922304265 221.6796875 200.6833172304265 332.421875 200.6833172304265 468.9453125S311.4255047304266 716.2109375 447.9489422304265 716.2109375C584.6676922304265 716.2109375 695.2145672304265 605.6640625 695.2145672304265 468.9453125C695.2145672304265 332.6171875 584.4723797304265 221.6796875 447.9489422304265 221.6796875z" />
    <glyph glyph-name="all-inclusive"
      unicode="&#xEA31;"
      horiz-adv-x="1000" d="M775.0000000000002 724.1666666666667C715.0000000000002 724.1666666666667 658.3333333333335 700.8333333333334 617.916666666667 660.4166666666667L500.0000000000002 555.8333333333334L436.6666666666669 500H437.0833333333335L325.0000000000002 400.4166666666667C298.3333333333335 373.75 262.9166666666668 359.1666666666667 225.0000000000002 359.1666666666667C147.0833333333335 359.1666666666667 83.7500000000002 422.0833333333334 83.7500000000002 500S147.0833333333335 640.8333333333334 225.0000000000002 640.8333333333334C262.9166666666669 640.8333333333334 298.3333333333335 626.25 326.6666666666668 597.9166666666667L373.7500000000001 556.25L436.6666666666668 612.0833333333335L384.1666666666669 658.3333333333334A223.74999999999997 223.74999999999997 0 0 1 225.0000000000002 724.1666666666667C100.8333333333335 724.1666666666667 2e-13 623.3333333333334 2e-13 500S100.8333333333335 275.8333333333334 225.0000000000002 275.8333333333334C285.0000000000002 275.8333333333334 341.6666666666668 299.1666666666668 382.0833333333335 339.5833333333334L500.0000000000002 443.75L500.4166666666668 443.3333333333334L563.3333333333335 500H562.9166666666667L675 599.5833333333334C701.6666666666667 626.25 737.0833333333333 640.8333333333334 775 640.8333333333334C852.9166666666667 640.8333333333334 916.25 577.9166666666667 916.25 500S852.9166666666667 359.1666666666668 775 359.1666666666668C737.5 359.1666666666668 701.6666666666667 373.7500000000001 673.3333333333333 402.0833333333334L625.8333333333333 444.1666666666668L562.9166666666667 388.3333333333334L615.8333333333333 341.6666666666667A224.41666666666666 224.41666666666666 0 0 1 775 276.25C899.1666666666665 276.25 999.9999999999998 376.6666666666667 999.9999999999998 500.4166666666666S899.1666666666665 724.1666666666666 775 724.1666666666666z" />
    <glyph glyph-name="all-out"
      unicode="&#xEA32;"
      horiz-adv-x="1000" d="M666.6666666666665 826.6666666666666L833.3333333333333 660V826.6666666666666zM833.3333333333333 326.6666666666668L666.6666666666665 160H833.3333333333333zM333.3333333333333 160L166.6666666666666 326.6666666666668V160zM166.6666666666666 660L333.3333333333333 826.6666666666666H166.6666666666666zM706.25 699.5833333333334C592.5 813.3333333333333 407.5 813.3333333333333 293.75 699.5833333333334S179.9999999999999 400.8333333333334 293.75 287.0833333333334S592.5 173.3333333333334 706.25 287.0833333333334S820 585.4166666666667 706.25 699.5833333333334zM660.4166666666665 332.9166666666667C571.6666666666665 244.1666666666668 428.3333333333332 244.1666666666668 339.5833333333333 332.9166666666667S250.8333333333333 565 339.5833333333333 653.75S571.6666666666665 742.5 660.4166666666665 653.75S749.1666666666665 421.6666666666667 660.4166666666665 332.9166666666667z" />
    <glyph glyph-name="amazon-pay"
      unicode="&#xEA33;"
      horiz-adv-x="1193.75" d="M0 364.84375C4.4921875 373.046875 10.15625 374.4140625 18.9453125 369.7265625C39.2578125 358.7890625 59.1796875 347.4609375000001 79.8828125 337.109375C159.375 297.2656250000001 242.3828125 267.578125 328.7109375 246.6796875C369.5312500000001 236.9140625 410.5468750000001 229.1015625 452.1484375 223.6328125C513.671875 215.4296875 575.5859375 211.9140625 637.6953125 213.4765625C671.6796875 214.2578125 705.6640625 216.9921875 739.453125 220.8984375C849.609375 233.984375 956.0546875 261.5234375000001 1058.3984375000002 304.4921875000001C1064.0625000000002 306.8359375 1069.9218750000002 308.3984375000001 1076.1718750000002 306.8359375C1089.2578125000002 303.3203125 1093.7500000000002 289.2578125 1084.1796875000002 279.6875000000001C1078.7109375000005 274.2187500000001 1071.8750000000005 269.7265625 1065.4296875000002 265.2343750000001C1005.4687500000002 224.0234375000001 940.0390625000002 194.1406250000002 870.8984375000002 171.6796875000002C822.8515625000001 156.2500000000002 774.0234375000001 144.7265625000001 724.2187500000001 137.3046875000001C689.8437500000001 132.2265625000001 655.0781250000002 128.7109375000002 620.3125000000001 127.9296875000001C618.7500000000001 127.9296875000001 616.9921875000002 127.5390625000001 615.4296875000001 127.3437500000001H574.21875C572.65625 127.5390625000001 570.8984375 127.9296875000001 569.3359375 127.9296875000001C562.3046875 128.3203125000001 555.2734375 128.5156250000001 548.4375 128.7109375000001C515.4296875000001 130.078125 482.6171875000001 133.7890625000001 450 139.0625000000001C396.484375 147.8515625000001 344.140625 161.328125 292.96875 179.8828125C187.3046875 218.1640625000001 92.578125 274.8046875000001 8.59375 349.8046875C5.078125 352.9296875000001 2.734375 357.2265625000001 0 360.9375V364.84375zM308.59375 873.046875C305.859375 872.65625 302.9296875 872.265625 300.1953125 871.875C272.8515625 868.5546875 248.2421875 858.3984375 225.9765625 842.3828125C221.2890625 839.0625 216.9921875 835.546875 212.109375 831.8359375C211.71875 832.8125 211.328125 833.7890625 211.328125 834.5703125C210.546875 839.84375 209.765625 845.3125 208.7890625 850.5859375C207.421875 859.5703125 202.9296875 863.4765625 193.9453125 863.4765625H171.484375C158.0078125 863.4765625 155.46875 860.9375 155.46875 847.4609375V438.671875C155.46875 436.71875 155.46875 434.765625 155.6640625 432.8125C156.0546875 426.953125 159.5703125 423.2421875000001 165.234375 423.046875C178.90625 422.8515625 192.7734375 422.8515625 206.4453125 423.046875C212.109375 423.046875 215.625 426.953125 216.2109375 432.8125C216.40625 434.765625 216.40625 436.71875 216.40625 438.671875V580.078125C218.5546875 578.3203125 219.7265625 577.34375 220.703125 576.3671875C255.6640625 547.265625 295.8984375 537.6953125 339.84375 546.2890625C379.6875 554.1015625 407.421875 578.515625 425.390625 614.453125C439.0625 641.6015625 444.7265625000001 670.5078125 445.5078125000001 700.5859375C446.4843750000001 733.984375 443.1640625000001 766.796875 429.6875000000001 797.8515625C413.0859375000001 836.1328125 385.5468750000001 861.328125 343.9453125000001 869.921875C337.6953125000001 871.2890625 331.2500000000001 871.875 324.8046875 872.8515625C319.3359375 873.046875 314.0625 873.046875 308.59375 873.046875zM216.015625 791.2109375C216.015625 794.140625 216.796875 795.8984375 219.3359375 797.65625C246.09375 816.2109375 275.5859375 825.9765625 308.3984375 823.4375C337.5 821.2890625 361.328125 807.03125 373.828125 772.8515625C381.4453125 751.953125 383.3984375 730.2734375 383.3984375 708.3984375C383.3984375 688.0859375 381.8359375 668.1640625 375.5859375 648.6328125C362.3046875 607.03125 331.8359375 591.2109375 292.3828125000001 592.96875C265.0390625000001 594.140625 241.2109375000001 604.6875 219.3359375 620.1171875C216.9921875 621.875 216.015625 623.4375 216.015625 626.5625C216.2109375 654.1015625 216.015625 681.4453125 216.015625 708.984375C216.015625 736.328125 216.2109375 763.671875 216.015625 791.2109375zM617.7734375 873.046875C615.8203125 872.8515625 613.8671875 872.4609375 612.1093750000001 872.265625C592.96875 871.2890625 574.2187500000001 868.9453125 555.6640625000001 864.2578125C543.7500000000001 861.1328125 532.2265625000001 856.8359375 520.7031250000001 852.9296875C513.6718750000001 850.5859375 510.1562500000002 845.5078125 510.3515625000001 837.890625C510.5468750000002 831.4453125 510.1562500000001 825 510.3515625000001 818.5546875C510.5468750000002 809.1796875 514.4531250000002 806.640625 523.6328125000001 808.984375C538.8671875000002 812.890625 554.1015625000002 817.1875 569.5312500000001 820.1171875C593.5546875000002 824.609375 617.7734375000001 826.5625 642.1875000000001 822.8515625C654.8828125000001 820.8984375 666.7968750000002 817.1875 675.0000000000001 806.4453125C682.2265625000001 797.0703125 684.9609375000002 785.9375 685.3515625000002 774.4140625C685.9375000000002 758.203125 685.7421875000001 741.9921875 685.9375000000002 725.78125C685.9375000000002 725 685.7421875000001 724.0234375 685.5468750000002 723.046875C684.5703125000002 723.2421875 683.7890625000002 723.046875 683.0078125000002 723.2421875C662.5000000000002 728.125 641.7968750000001 731.640625 620.5078125000002 732.8125C598.4375000000002 733.984375 576.5625000000002 732.6171875 555.4687500000002 725.1953125C530.2734375000002 716.40625 509.9609375000002 701.171875 498.0468750000002 676.5625C488.8671875000002 657.421875 487.5000000000002 637.109375 490.4296875000002 616.6015625C494.3359375000002 589.2578125 508.0078125000002 568.1640625 532.2265625000001 554.6875C555.4687500000001 541.796875 580.6640625000001 540.234375 606.2500000000001 544.140625C635.7421875000001 548.6328125 661.9140625000001 561.1328125 684.9609375000001 580.078125C685.7421875 580.859375 686.71875 581.4453125 688.0859375000001 582.2265625C689.2578125000002 574.8046875 690.2343750000002 567.7734375 691.6015625000001 560.7421875C692.7734375000002 554.6875 696.4843750000001 550.78125 702.1484375000001 550.5859375C712.6953125000001 550.390625 723.4375000000001 550.390625 733.9843750000001 550.5859375C739.2578125000001 550.78125 742.7734375000001 554.296875 743.3593750000001 559.765625C743.5546875000002 561.5234375 743.5546875000002 563.4765625 743.5546875000002 565.234375V772.265625C743.5546875000002 780.6640625 743.1640625000002 789.0625 741.7968750000002 797.4609375C738.0859375000003 822.65625 727.3437500000003 843.359375 704.6875000000002 856.8359375C691.6015625000002 864.6484375 677.1484375000002 868.5546875 662.1093750000002 870.703125C655.0781250000002 871.6796875 648.0468750000002 872.265625 641.0156250000002 873.2421875C633.3984375000002 873.046875 625.5859375000002 873.046875 617.7734375000002 873.046875zM686.1328125 623.6328125C686.1328125 621.09375 685.3515625000001 619.3359375 683.203125 617.7734375C661.328125 601.953125 637.3046875 591.40625 610.1562500000001 588.671875C599.0234375000001 587.5 587.8906250000001 587.890625 577.34375 592.1875C565.0390625 597.0703125 557.0312500000001 605.6640625 553.1250000000001 618.1640625S549.2187500000001 643.5546875 552.9296875 656.0546875C557.8125 672.2656250000001 569.3359375 681.4453125 584.9609375 686.5234375C600.78125 691.6015625 617.1875 692.3828125 633.3984375 690.8203125C649.8046875 689.453125 665.8203125000001 686.328125 682.2265625 684.1796875C685.3515625000001 683.7890625 686.3281250000001 682.2265625 686.3281250000001 679.1015625C686.1328125 669.7265625 686.3281250000001 660.546875 686.3281250000001 651.171875C686.1328125 641.9921875 685.9375000000001 632.8125 686.1328125 623.6328125zM1193.75 370.8984375C1191.796875 380.6640625 1184.3750000000002 384.3749999999999 1175.9765625 387.109375C1162.6953125000002 391.6015625 1148.828125 393.5546875 1134.9609375 394.7265624999999C1109.375 396.875 1083.7890625 395.7031249999999 1058.3984375 391.015625C1030.46875 385.7421875 1003.90625 376.7578125 980.2734375 360.5468749999999C977.5390625 358.5937499999999 974.8046874999998 356.4453124999999 973.046875 353.7109374999999C971.6796875 351.5624999999999 971.2890625 348.2421874999999 972.0703125 345.8984374999999C972.8515624999998 342.9687499999999 976.171875 342.1875 979.1015625 342.3828124999999C980.46875 342.3828124999999 982.03125 342.3828124999999 983.3984375 342.578125C998.6328125 344.140625 1013.671875 345.8984374999999 1028.90625 347.4609375C1051.1718749999998 349.609375 1073.6328124999998 350.9765625 1095.8984374999998 349.2187499999999C1105.2734374999998 348.6328124999999 1114.84375 346.484375 1124.0234374999998 343.9453124999999C1133.9843749999998 341.2109375 1138.4765624999998 333.7890625 1138.8671874999998 323.6328125C1139.6484374999998 308.0078125 1136.1328124999998 292.96875 1132.0312499999998 278.125C1124.0234374999998 248.046875 1112.4999999999998 218.9453124999999 1101.171875 190.0390624999999C1100.390625 188.0859374999999 1099.609375 186.1328124999999 1099.21875 184.1796874999999C1098.2421875 178.515625 1101.5625 174.8046874999999 1107.2265625 176.1718749999999C1110.546875 176.9531249999998 1114.2578125 178.7109374999999 1116.6015624999998 181.0546874999999C1125.1953124999998 189.4531249999999 1133.9843749999998 197.8515624999999 1141.40625 207.2265624999998C1166.4062499999998 239.2578124999998 1181.0546874999998 276.1718749999999 1189.6484375 315.8203124999999C1191.2109375 322.8515624999999 1192.3828125 330.0781249999999 1193.75 337.1093749999998V370.8984374999999zM935.7421875 611.5234375C910.5468750000002 681.25 885.3515625 751.171875 860.1562500000001 820.8984375C856.2500000000001 832.03125 851.9531250000001 842.96875 847.8515625 853.90625C845.703125 859.5703125 841.6015625000001 863.28125 835.3515625000001 863.28125C820.5078125 863.4765625 805.6640625000001 863.671875 790.6250000000001 863.4765625C785.7421875000001 863.4765625 783.3984375000001 859.5703125 784.3750000000001 854.6875C785.3515625000001 850.5859375 786.5234375000002 846.6796875 788.0859375000001 842.7734375C826.3671875000001 748.046875 864.8437500000001 653.125 903.5156250000002 558.59375C906.8359375000002 550.5859375 907.6171875000002 543.75 903.9062500000002 535.546875C897.4609375000001 521.2890625 892.3828125000002 506.25 885.7421875000001 491.9921874999999C879.8828125000001 479.296875 870.1171875000001 469.7265625 856.0546875000001 466.0156249999999C846.0937500000001 463.28125 836.1328125000001 462.8906249999999 825.9765625000002 463.8671874999999C821.0937500000002 464.2578124999999 816.2109375000002 465.4296874999999 811.3281250000002 465.8203124999999C804.6875000000002 466.2109374999999 801.3671875000001 463.2812499999999 801.1718750000002 456.4453124999999C800.9765625000001 449.9999999999999 800.9765625000001 443.5546874999998 801.1718750000002 437.1093749999999C801.3671875000002 426.3671874999999 805.0781250000002 421.4843749999999 815.6250000000001 419.7265625C826.5625000000002 417.7734375 837.6953125000002 416.015625 848.6328125000001 415.8203125C882.0312500000001 415.0390625 908.5937500000002 428.515625 925.7812500000002 457.6171874999999C932.6171875000002 469.1406249999999 938.8671875000002 481.25 943.7500000000002 493.5546874999999C990.0390625000002 610.3515624999999 1035.7421875000002 727.3437499999998 1081.6406250000002 844.3359374999999C1083.0078125000002 847.8515624999999 1084.1796875 851.3671874999999 1084.7656250000002 855.0781249999999C1085.5468750000002 860.5468749999999 1083.0078125000002 863.6718749999999 1077.5390625 863.6718749999999C1064.6484375 863.8671874999999 1051.5625000000002 863.6718749999999 1038.6718750000002 863.6718749999999C1031.4453125 863.6718749999999 1026.3671875000002 860.5468749999999 1023.6328125 853.5156249999999C1022.65625 850.7812499999999 1021.484375 848.2421874999999 1020.5078125 845.5078124999999C997.8515625 780.4687499999999 975.1953125 715.4296874999999 952.5390625 650.1953124999998C947.65625 636.1328124999999 942.5781249999998 621.8749999999998 937.5 606.8359374999999C936.71875 608.9843749999998 936.328125 610.1562499999998 935.7421875 611.5234374999999z" />
    <glyph glyph-name="amazon"
      unicode="&#xEA34;"
      horiz-adv-x="875" d="M502.345438443599 682.2265625C407.228250943599 678.7109375 171.290750943599 651.953125 171.290750943599 452.734375C171.290750943599 238.8671875 441.407938443599 230.078125 529.689188443599 368.359375C542.384500943599 348.4375000000001 598.8298134435989 295.1171875 618.165750943599 276.953125L729.103250943599 386.328125S666.017313443599 435.7421875 666.017313443599 489.4531250000001V776.7578125C666.017313443599 826.171875 618.165750943599 937.5 446.681375943599 937.5C274.806375943599 937.5 183.595438443599 830.078125 183.595438443599 733.7890625L327.150125943599 720.5078125C358.986063443599 817.1875 433.009500943599 817.1875 433.009500943599 817.1875C512.501688443599 817.3828125 502.345438443599 758.984375 502.345438443599 682.2265625zM502.345438443599 512.6953125C502.345438443599 356.4453125 337.892313443599 379.8828125 337.892313443599 479.1015625C337.892313443599 571.2890625 436.525125943599 589.84375 502.345438443599 591.9921875V512.6953125zM767.970438443599 193.359375C752.931375943599 173.828125 631.251688443599 62.5 427.150125943599 62.5S66.798563443599 202.1484375 18.947000943599 259.765625C5.665750943599 274.8046875 20.900125943599 281.8359375 29.689188443599 275.9765625C172.853250943599 189.0625 396.486063443599 45.8984375 757.228250943599 216.796875C771.876688443599 224.0234375 783.204813443599 212.890625 767.970438443599 193.359375zM845.704813443599 189.0625C833.009500943599 158.203125 814.454813443599 136.71875 804.298563443599 128.515625C793.556375943599 119.7265625 785.743875943599 123.2421875 791.603250943599 135.9375S829.298563443599 226.7578125 816.407938443599 243.359375C803.712625943599 259.5703125000001 744.142313443599 251.7578125000001 722.657938443599 249.609375C701.564188443599 247.65625 697.267313443599 245.703125 695.314188443599 250.1953125C690.822000943599 261.328125 737.697000943599 280.46875 768.556375943599 284.375C799.220438443599 287.8906250000001 848.634500943599 285.9375000000001 858.400125943599 273.2421875000001C865.626688443599 263.28125 858.400125943599 220.3125 845.704813443599 189.0625z" />
    <glyph glyph-name="amilia"
      unicode="&#xEA35;"
      horiz-adv-x="875" d="M468.802794011762 937.5C347.9043565117621 937.5 211.9668565117621 904.4921875 109.0371690117621 829.296875C99.0762315117621 823.2421875 91.2637315117621 811.328125 94.9746690117621 791.40625C97.1231065117621 781.4453125 104.9356065117621 737.890625 114.8965440117621 714.0625C122.9043565117621 694.140625 142.6309190117621 694.140625 154.5449815117621 702.1484375C218.0215440117621 745.703125 343.0215440117621 795.3125 452.005919011762 795.3125C565.0918565117621 795.3125 567.0449815117621 739.84375 567.0449815117621 652.5390625V577.34375C396.3418565117621 555.2734375 152.5918565117621 509.765625 91.0684190117621 483.984375C21.7324815117621 452.1484375 31.6934190117621 301.3671875 31.6934190117621 265.625S61.3809190117621 62.5 275.6387315117621 62.5C368.9981065117621 62.5 497.7090440117621 102.9296875 575.0527940117621 144.7265625V95.1171875000001C575.0527940117621 89.2578125000001 579.1543565117621 79.1015625000001 586.9668565117621 77.34375C593.0215440117622 75.390625 685.9902940117621 73.4375 703.9590440117621 73.4375S826.0293565117621 72.8515625 833.8418565117621 74.8046875C841.8496690117621 76.7578125 843.8027940117621 86.7187500000001 843.8027940117621 92.5781250000001V671.875C843.6074815117621 828.7109375 730.7168565117622 937.5 468.8027940117621 937.5zM297.1231065117621 297.4609375C297.1231065117621 321.2890625 291.2637315117621 380.859375 332.8652940117621 400.78125C380.3262315117621 426.5625 479.544981511762 458.2031249999999 566.8496690117621 466.2109375V257.8125C525.0527940117622 232.03125 471.7324815117621 210.15625 412.3574815117621 210.15625C309.2324815117621 210.15625 297.3184190117621 275.5859375 297.1231065117621 297.4609375" />
    <glyph glyph-name="android"
      unicode="&#xEA36;"
      horiz-adv-x="875" d="M175 600.5859375V374.4140625C175 344.3359375 151.3671875 320.3125 121.2890625 320.3125C91.40625 320.3125 62.4999999999999 344.53125 62.4999999999999 374.4140625V600.5859375C62.4999999999999 630.078125 91.40625 654.296875 121.2890625 654.296875C150.78125 654.296875 175 630.078125 175 600.5859375zM196.09375 293.9453125C196.09375 261.9140625 221.875 236.1328125 253.90625 236.1328125H292.7734375L293.359375 116.7968749999999C293.359375 44.7265625 401.171875 45.3124999999999 401.171875 116.7968749999999V236.1328125H473.828125V116.7968749999999C473.828125 45.1171874999999 582.2265625 44.9218749999999 582.2265625 116.7968749999999V236.1328125H621.6796875C653.3203125 236.1328125 679.1015625 261.9140624999999 679.1015625 293.9453125V644.3359375H196.09375V293.9453125zM680.46875 663.28125H193.9453125C193.9453125 746.875 243.9453125 819.53125 318.1640625 857.421875L280.859375 926.3671875C275.390625 935.9375 289.2578125 941.9921875 293.9453125 933.7890625L331.8359375 864.2578125C400 894.53125 478.3203124999999 892.96875 543.359375 864.2578125L581.0546875 933.59375C585.9375 941.9921875 599.609375 935.7421875 594.140625 926.171875L556.8359375 857.421875C630.46875 819.53125 680.4687500000001 746.875 680.4687500000001 663.28125zM347.0703125 771.6796875C347.0703125 782.8125 338.0859375 792.1875 326.5625 792.1875C315.4296875 792.1875 306.640625 782.8125 306.640625 771.6796875S315.625 751.171875 326.5625 751.171875C338.0859375 751.171875 347.0703125 760.546875 347.0703125 771.6796875zM568.5546875 771.6796875C568.5546875 782.8125 559.5703125 792.1875 548.6328125000001 792.1875C537.1093750000001 792.1875 528.1250000000001 782.8125 528.1250000000001 771.6796875S537.1093750000001 751.171875 548.6328125000001 751.171875C559.5703125000001 751.171875 568.5546875 760.546875 568.5546875 771.6796875zM753.7109375000001 654.296875C724.21875 654.296875 700.0000000000001 630.6640625 700.0000000000001 600.5859375V374.4140625C700.0000000000001 344.3359375 724.21875 320.3125 753.7109375000001 320.3125C783.7890625 320.3125 812.5000000000001 344.53125 812.5000000000001 374.4140625V600.5859375C812.5000000000001 630.6640625 783.5937500000001 654.296875 753.7109375000001 654.296875z" />
    <glyph glyph-name="angellist"
      unicode="&#xEA37;"
      horiz-adv-x="875" d="M677.8321381883638 579.296875C700.6837006883638 642.96875 766.5040131883638 827.1484375 766.5040131883638 886.1328125C766.5040131883638 938.0859375 735.8399506883638 981.640625 681.1524506883638 981.640625C594.0430756883638 981.640625 515.9180756883638 724.4140625 491.5040131883638 663.0859375C472.5587006883638 718.75 383.8868256883638 1000 305.7618256883638 1000C245.0196381883638 1000 216.5040131883638 955.2734375 216.5040131883638 899.0234375C216.5040131883638 830.078125 283.3008881883638 651.3671875 307.5196381883638 582.6171875C295.2149506883638 587.109375 281.9337006883638 591.015625 268.4571381883638 591.015625C222.7540131883638 591.015625 174.1212006883638 534.1796875 174.1212006883638 488.28125C174.1212006883638 470.8984375 183.6915131883638 446.484375 189.7462006883638 430.2734375C117.6758881883638 410.7421875 89.9415131883638 362.6953125 89.9415131883638 290.234375C89.7462006883638 149.21875 223.3399506883638 0 411.2305756883638 0C641.6993256883638 0 785.0587006883638 173.046875 785.0587006883638 396.2890625C785.0587006883638 480.46875 771.5821381883638 556.4453125 677.8321381883638 579.296875zM608.6915131883638 789.0625C616.5040131883638 813.0859375 649.9024506883638 914.6484375 681.1524506883638 914.6484375C697.9493256883638 914.6484375 702.4415131883638 897.265625 702.4415131883638 883.3984375C702.4415131883638 846.09375 627.0508881883636 640.0390625 610.4493256883636 594.3359375L544.0430756883636 606.0546875L608.6915131883638 789.0625zM277.8321381883638 905.6640625C277.8321381883638 928.90625 306.1524506883638 994.921875 368.2618256883639 813.671875L435.8399506883639 617.7734375C405.3712006883639 620.3125 381.7383881883639 623.6328125 366.6993256883638 615.0390625C345.4102631883638 671.2890625 277.8321381883638 848.828125 277.8321381883638 905.6640625zM273.3399506883638 523.4375C330.5665131883638 523.4375 404.3946381883638 338.671875 404.3946381883638 313.671875C404.3946381883638 303.7109375 394.8243256883638 291.4062500000001 383.6915131883638 291.4062500000001C342.8712006883638 291.4062500000001 233.4962006883638 441.6015625 233.4962006883638 482.2265625000001C233.6915131883638 497.2656250000001 258.3008881883638 523.4375 273.3399506883638 523.4375zM633.3008881883638 159.5703125C576.4649506883638 97.0703125 503.8087006883638 64.6484374999999 419.0430756883639 64.6484374999999C303.0274506883639 64.6484374999999 211.4258881883639 128.3203125 167.2852631883638 237.109375C133.8868256883639 321.8749999999999 174.7071381883638 370.5078125 207.5196381883638 370.5078125C229.7852631883638 370.5078125 313.5743256883639 252.734375 313.5743256883639 227.734375C313.5743256883639 218.1640625000001 298.5352631883639 211.5234375 290.7227631883639 211.5234375C259.2774506883639 211.5234375 246.9727631883639 241.796875 190.9180756883639 311.9140625C132.9102631883639 253.90625 230.9571381883639 142.1874999999999 304.7852631883639 142.1874999999999C355.7618256883639 142.1874999999999 388.9649506883639 189.4531249999999 379.0040131883639 224.2187499999999C386.2305756883638 224.2187499999999 395.2149506883639 223.6328124999999 401.8555756883638 225.390625C404.0040131883638 172.4609374999999 419.6290131883638 109.375 483.3008881883638 104.8828125C483.3008881883638 106.6406249999999 487.2071381883638 118.75 487.2071381883638 119.3359374999999C487.2071381883638 153.3203124999999 466.5040131883638 183.0078125 466.5040131883638 217.578125C466.5040131883638 272.8515625 508.8868256883638 326.3671874999999 551.8555756883638 357.6171874999999C567.4805756883638 369.3359374999999 586.4258881883638 376.5624999999999 604.7852631883638 383.203125C623.7305756883638 390.4296875 643.8477631883638 398.828125 658.3008881883638 413.2812499999999C656.1524506883638 435.1562499999999 647.1680756883638 454.4921875 625.2930756883638 454.4921875C571.1915131883638 454.4921875 389.7462006883639 446.6796875 389.7462006883639 532.03125C389.7462006883639 545.1171875 389.9415131883639 557.6171875 423.7305756883639 557.6171875C486.8165131883639 557.6171875 646.9727631883638 541.9921875 693.8477631883638 500.7812499999999C729.1993256883641 469.3359374999999 741.3087006883638 279.6875 633.3008881883638 159.5703125zM440.7227631883639 405.6640625C459.6680756883638 399.6093749999999 479.1993256883638 397.8515625 498.7305756883638 393.9453125C484.2774506883638 383.3984375 471.3868256883638 370.5078125 459.0821381883638 356.6406249999999C453.6133881883637 373.2421874999999 446.9727631883638 389.453125 440.7227631883638 405.6640625z" />
    <glyph glyph-name="angrycreative"
      unicode="&#xEA38;"
      horiz-adv-x="1250" d="M1249.9751434247105 534.765625L1243.7251434247105 479.6875L1176.3423309247105 475.1953125L1172.4360809247105 439.84375L1239.8188934247105 444.3359375L1233.5688934247103 389.2578125L1166.3813934247103 384.9609375L1161.8892059247105 345.703125L1229.0767059247105 350L1223.2173309247105 299.0234374999999L1096.8501434247103 291.0156249999999L1121.6548309247105 512.1093749999999L1029.2720184247105 286.71875L966.9673309247104 282.8125L920.4829559247104 512.890625L979.6626434247104 516.796875L1006.2251434247106 361.7187500000001L1068.1392059247107 522.6562500000001L1249.9751434247107 534.765625zM833.5688934247105 274.4140625L888.8423309247105 277.9296875L914.0376434247104 512.5L858.5688934247105 508.7890625L833.5688934247105 274.4140625zM316.3813934247105 241.9921875L278.4907684247105 312.3046875L271.6548309247105 239.2578125L216.5767059247105 235.9375L221.8501434247105 292.7734375000001C200.3657684247105 257.6171875000001 159.3501434247105 225.78125 110.7173309247104 222.8515625C46.6548309247105 218.9453125 -5.8842315752895 263.671875 0.5610809247105 336.5234375C5.6392059247105 393.75 52.7095184247105 459.1796875 132.3970184247105 464.2578125000001C206.0298309247105 468.9453125 225.3657684247105 418.9453125000001 232.5923309247105 408.0078125000001L238.0610809247105 468.1640625000001L314.0376434247104 473.0468750000001C353.2954559247104 475.5859375000001 389.6235809247105 465.8203125000001 397.0454559247104 426.7578125000001L402.1235809247104 478.7109375000001L528.6860809247105 486.9140625000001L523.4126434247105 432.4218750000003L452.3188934247104 427.7343750000003L448.9985809247105 392.7734375000003L520.0923309247105 397.2656250000004L514.8188934247105 342.7734375000004L443.7251434247105 338.2812500000004L440.0142059247105 299.4140625000004L510.9126434247105 303.9062500000004L506.8110809247104 263.2812500000004L614.2329559247105 492.1875000000003L660.7173309247105 495.3125000000004L723.4126434247105 279.296875L740.7954559247104 446.484375L697.2407684247104 443.7500000000001L702.9048309247104 498.2421875000001L849.3892059247104 507.8125000000001L843.5298309247104 453.125L796.0688934247103 450L777.1235809247104 270.5078125L663.8423309247104 263.28125L655.4438934247103 293.7500000000001L578.4907684247104 288.8671875000001L562.8657684247104 257.03125L316.3813934247103 241.9921875000001zM229.8579559247105 379.1015624999999L178.2954559247105 375.78125C165.2095184247105 400 150.1704559247105 408.203125 126.9282684247105 406.640625C89.8188934247105 404.296875 61.8892059247105 372.4609375 59.3501434247105 341.6015625C56.6157684247105 310.3515625 73.6079559247104 278.125 115.4048309247105 280.6640625C140.4048309247105 282.2265625 157.0063934247105 297.4609375 171.8501434247105 317.5781249999999L224.5845184247105 320.8984374999999L229.8579559247105 379.1015624999999zM339.4282684247105 394.1406249999999C341.7720184247105 419.3359374999999 324.5845184247105 420.703125 288.4517059247105 418.3593749999999L283.1782684247105 362.6953124999999C310.9126434247105 364.4531249999998 336.8892059247105 366.7968749999999 339.4282684247105 394.1406249999999zM380.6392059247105 255.8593749999999L391.9673309247105 373.0468749999999C382.2017059247105 346.6796874999999 363.2563934247105 331.8359374999999 337.4751434247105 321.0937499999999L380.6392059247105 255.8593749999999zM645.0923309247105 343.7499999999999L629.6626434247106 417.5781249999999L598.8032684247105 340.8203124999999L645.0923309247105 343.7499999999999zM312.8657684247105 489.4531249999998L304.4673309247105 523.6328124999998L227.1235809247105 518.5546874999998L211.3032684247105 483.0078124999998L148.9985809247105 478.9062499999998L260.3267059247105 716.9921874999998L307.0063934247105 720.1171874999998L366.9673309247105 520.8984374999998L386.3032684247105 725.3906249999998L439.0376434247105 728.9062499999998L512.8657684247105 604.6874999999998L525.5610809247105 734.7656249999998L581.2251434247105 738.4765624999998L573.4126434247105 658.0078124999998C587.8657684247105 684.3749999999998 618.1392059247105 745.3124999999998 697.6313934247106 750.7812499999998C776.7329559247106 756.2499999999998 799.9751434247105 693.5546874999998 801.9282684247105 691.6015624999998L808.3735809247106 754.1015624999998L885.1313934247106 759.3749999999998C909.9360809247106 761.1328124999998 939.4282684247106 758.7890624999998 956.0298309247106 740.4296874999998L947.4360809247106 763.6718749999998L1010.3267059247106 767.9687499999998L1035.5220184247105 683.5937499999998L1080.4438934247105 772.8515624999998L1140.9907684247105 777.1484374999998L1055.8345184247105 624.0234374999998L1046.4595184247107 537.4999999999998L990.9907684247108 533.7890624999998L1000.3657684247106 620.3124999999998L969.5063934247106 704.2968749999998C971.4595184247106 660.7421874999998 951.5376434247106 625.9765624999998 907.0063934247106 607.4218749999998L956.2251434247104 531.6406249999998L885.1313934247106 526.9531249999998L847.6313934247106 598.8281249999998L839.8188934247106 524.0234374999998L784.3501434247106 520.3124999999997L790.7954559247107 581.8359374999997C777.7095184247107 563.6718749999997 752.3188934247107 512.6953124999997 674.3892059247106 507.6171874999997C623.2173309247106 504.2968749999997 585.3267059247106 527.7343749999998 566.1860809247107 584.1796874999998L558.3735809247107 505.4687499999997L509.5454559247106 502.3437499999997L436.1079559247106 625.9765624999997L423.8032684247106 496.6796874999997L312.8657684247107 489.4531249999997zM853.1001434247106 649.8046874999998C873.0220184247106 651.1718749999998 887.2798309247106 653.9062499999998 895.2876434247107 658.2031249999998C904.0767059247108 662.8906249999998 908.9595184247108 670.7031249999998 910.1313934247108 681.8359374999998C911.3032684247108 692.1874999999998 908.9595184247108 699.0234374999998 903.4907684247108 702.1484374999998C896.4595184247107 706.2499999999998 882.7876434247107 707.6171874999998 858.7642059247108 706.0546874999998L853.1001434247108 649.8046874999998zM640.0142059247105 582.03125C650.9517059247105 570.5078125 664.8188934247105 565.4296875 681.6157684247105 566.6015625C690.7954559247105 567.1875 699.3892059247105 570.1171875 707.5923309247105 574.609375C718.3345184247105 580.46875 728.2954559247106 590.234375 737.0845184247106 602.5390625L670.2876434247106 598.046875L674.9751434247105 644.7265625L798.2173309247106 653.125L800.5610809247106 676.5625L739.6235809247106 672.4609375C731.6157684247105 679.6875 724.3892059247106 685.3515625 717.9438934247105 688.28125C710.1313934247105 691.6015625 702.1235809247105 693.75 694.1157684247106 693.1640625C678.4907684247106 692.1875 664.2329559247105 686.1328125 651.1470184247106 675.1953125C636.1079559247106 662.6953125 627.7095184247106 646.875 625.9517059247106 627.5390625C623.8032684247106 608.7890625 628.6860809247106 593.75 640.0142059247106 582.03125zM246.8501434247104 566.015625L293.3345184247105 569.140625L277.1235809247104 642.578125L246.8501434247104 566.015625z" />
    <glyph glyph-name="angular"
      unicode="&#xEA39;"
      horiz-adv-x="811.71875" d="M331.4453125 476.3671875H480.2734374999999L405.859375 655.2734375L331.4453125 476.3671875zM405.859375 937.5L0 792.1875L62.109375 253.7109375L405.859375 62.5L749.609375 253.7109375L811.71875 792.1875L405.859375 937.5zM660.15625 269.921875H565.234375L514.0625 397.65625H298.046875L246.875 269.9218750000001H151.7578125L405.859375 840.8203125L660.15625 269.921875z" />
    <glyph glyph-name="announcement"
      unicode="&#xEA3A;"
      horiz-adv-x="1000" d="M833.3333333333333 916.6666666666666H166.6666666666667C120.8333333333334 916.6666666666666 83.75 879.1666666666666 83.75 833.3333333333334L83.3333333333334 83.3333333333334L250.0000000000001 250H833.3333333333333C879.1666666666666 250 916.6666666666666 287.5 916.6666666666666 333.3333333333334V833.3333333333334C916.6666666666666 879.1666666666666 879.1666666666666 916.6666666666666 833.3333333333333 916.6666666666666zM541.6666666666666 541.6666666666667H458.3333333333334V791.6666666666667H541.6666666666666V541.6666666666667zM541.6666666666666 375H458.3333333333334V458.3333333333334H541.6666666666666V375z" />
    <glyph glyph-name="app-store-ios"
      unicode="&#xEA3B;"
      horiz-adv-x="875" d="M781.25 937.5H93.75C41.9921875 937.5 0 895.5078125 0 843.75V156.25C0 104.4921875 41.9921875 62.5 93.75 62.5H781.25C833.0078125 62.5 875 104.4921875 875 156.25V843.75C875 895.5078125 833.0078125 937.5 781.25 937.5zM248.046875 249.0234375C237.3046875 230.2734375 213.28125 224.0234375 194.7265625 234.765625C175.9765625 245.5078125 169.7265625 269.53125 180.46875 288.0859375L208.3984375 336.328125C239.8437500000001 345.8984374999999 265.625 338.4765625 285.7421875 314.0625L248.046875 249.0234375zM519.3359375 354.296875H164.0625C142.578125 354.296875 125 371.875 125 393.359375S142.578125 432.421875 164.0625 432.421875H263.671875L391.40625 653.515625L351.3671875 722.65625C340.625 741.40625 347.0703125000001 765.234375 365.6250000000001 775.9765625C384.375 786.71875 408.2031250000001 780.2734375 418.9453125000001 761.71875L436.3281250000001 731.640625L453.7109375000001 761.71875C464.4531250000001 780.46875 488.4765625000001 786.71875 507.0312500000001 775.9765625C525.7812500000001 765.234375 532.0312500000001 741.2109375 521.2890625000001 722.65625L353.7109375000001 432.421875H475.0000000000001C514.4531250000001 432.421875 536.5234375000001 386.1328125 519.3359375000001 354.296875zM710.9375 354.296875H654.296875L692.578125 288.0859375C703.3203125 269.3359375 696.875 245.5078125 678.3203125 234.765625C659.5703125 224.0234375 635.7421875 230.46875 625 249.0234375C560.7421875 360.15625 512.6953125 443.75 480.46875 499.2187500000001C447.8515625 555.859375 471.09375 612.5 494.3359375 631.640625C519.921875 587.3046875000001 558.203125 520.8984375000001 609.375 432.4218750000001H710.9375C732.421875 432.4218750000001 750 414.8437500000001 750 393.3593750000001C750 371.6796875 732.421875 354.2968750000001 710.9375 354.2968750000001z" />
    <glyph glyph-name="app-store"
      unicode="&#xEA3C;"
      horiz-adv-x="1000" d="M499.8046875 763.8671875L517.578125 794.53125C528.515625 813.671875 552.9296875 820.1171875 572.0703125 809.1796875C591.2109375 798.2421875 597.65625 773.828125 586.71875 754.6875L415.8203125 458.7890625H539.453125C579.4921875 458.7890625 601.953125 411.7187499999999 584.5703125 379.1015624999999H222.265625C200.1953125 379.1015624999999 182.421875 396.875 182.421875 418.9453124999999C182.421875 441.0156249999999 200.1953125 458.7890624999999 222.265625 458.7890624999999H323.828125L453.90625 684.1796874999998L413.28125 754.6874999999999C402.34375 773.8281249999998 408.7890625 798.0468749999999 427.9296875 809.1796874999999C447.0703125 820.1171874999999 471.2890624999999 813.6718749999999 482.421875 794.5312499999999L499.8046875 763.8671874999999zM346.09375 338.0859375L307.8125 271.6796875C296.875 252.5390625 272.4609375 246.09375 253.3203125 257.03125C234.1796875 267.9687500000001 227.734375 292.3828125000001 238.671875 311.5234375L267.1875 360.7421875C299.21875 370.703125 325.390625 363.0859375 346.09375 338.0859374999999zM675.9765625 458.59375H779.6875000000001C801.7578125000001 458.59375 819.53125 440.8203125 819.53125 418.7500000000001C819.53125 396.6796875 801.7578125 378.9062500000001 779.6875000000001 378.9062500000001H722.0703125000001L760.9375 311.5234375000001C771.8750000000001 292.3828125000001 765.4296875000001 268.1640625000001 746.2890625 257.0312500000001C727.1484375 246.0937500000001 702.9296875000001 252.5390625000001 691.7968750000001 271.6796875000001C626.3671875000001 385.1562500000003 577.1484375000001 470.1171875000001 544.5312500000001 526.7578125000002C511.1328125000001 584.3750000000002 534.9609375000002 642.1875000000001 558.5937500000001 661.7187500000001C584.7656250000001 616.7968750000001 623.8281250000001 549.0234375000002 675.9765625000001 458.5937500000001zM500 984.375C232.421875 984.375 15.625 767.578125 15.625 500S232.421875 15.625 500 15.625S984.375 232.421875 984.375 500S767.578125 984.375 500 984.375zM921.875 500C921.875 268.1640625 734.1796875 78.125 500 78.125C268.1640625 78.125 78.125 265.8203125 78.125 500C78.125 731.8359375 265.8203125 921.875 500 921.875C731.8359375 921.875 921.875 734.1796875 921.875 500z" />
    </font>
</defs>
</svg>
