<svg xmlns="http://www.w3.org/2000/svg" viewBox="0 0 368 368">
  <path d="M232,163.28a370.62,370.62,0,0,1-48,3,370.62,370.62,0,0,1-48-3C62.16,153.76,8,122.56,8,85.6V279.28C8,323.84,86.8,360,184,360a96,96,0,1,1,95-109.76A87.08,87.08,0,0,1,280,264a96,96,0,0,1-96,96c97.2,0,176-36.16,176-80.72V85.6C360,122.56,305.84,153.76,232,163.28Z" fill="#00bf7c" opacity="0.3"/>
  <g>
    <path d="M233,.06c-.18,0-.34,0-.53,0s-.32-.1-.5-.1a7.31,7.31,0,0,0-.94.19,8,8,0,0,0-1.75.35,7.66,7.66,0,0,0-1.14.58,7.9,7.9,0,0,0-1.43,1,7.7,7.7,0,0,0-.92,1,7.58,7.58,0,0,0-.9,1.33,7.83,7.83,0,0,0-.5,1.5,7.46,7.46,0,0,0-.35,1c0,.18,0,.34,0,.51s-.1.31-.1.5V156.18a377.71,377.71,0,0,1-80,0V8c0-.18-.09-.33-.1-.51s.06-.34,0-.51a7.59,7.59,0,0,0-.34-1,7.64,7.64,0,0,0-.52-1.53,7.93,7.93,0,0,0-.85-1.26,7.65,7.65,0,0,0-1-1.11,7.71,7.71,0,0,0-1.35-.91,8.53,8.53,0,0,0-1.21-.61A7.29,7.29,0,0,0,137,.19,8.62,8.62,0,0,0,136,0c-.18,0-.32.09-.5.1s-.34-.06-.53,0C54.24,10.47,0,44.85,0,85.6V279.28C0,329,80.82,368,184,368s184-39,184-88.72V85.6C368,44.85,313.76,10.47,233,.06ZM128,17.28V154C62.6,143.69,16,115.6,16,85.6S62.6,27.58,128,17.28ZM16,122.41C37.73,146,80.22,164.15,134.94,171.22h0c.66.09,1.38.11,2,.2A104.46,104.46,0,0,0,82.78,240C41.36,226.16,16,204.5,16,182.48Zm0,156.87V219.14C29.66,234,51.66,246.75,80.32,256c-.2,2.66-.32,5.33-.32,8a103.8,103.8,0,0,0,40.82,82.42C60,335.36,16,309.08,16,279.28ZM184,352A88.12,88.12,0,0,1,96.88,251.46C103,208.44,140.47,176,184,176a88.34,88.34,0,0,1,87.06,75.5A80,80,0,0,1,272,264,88.1,88.1,0,0,1,184,352Zm168-72.72c0,29.8-44,56.08-104.82,67.14A103.8,103.8,0,0,0,288,264c0-2.73-.11-5.39-.31-8,28.65-9.22,50.65-22,64.31-36.85Zm0-96.8c0,22-25.42,43.75-66.85,57.57A104.36,104.36,0,0,0,231,171.42c.67-.09,1.39-.11,2.06-.2h0C287.79,164.15,330.28,146,352,122.4ZM240,154V17.28c65.4,10.3,112,38.36,112,68.32S305.4,143.69,240,154Z" fill="#00bf7c"/>
    <path d="M232,255.2a8,8,0,0,0-8,8,40,40,0,1,1-80,0c0-22.32,17.94-40.49,40-40.49a8,8,0,0,0,0-16c-30.88,0-56,25.34-56,56.49s25.12,56.4,56,56.4,56-25.3,56-56.4A8,8,0,0,0,232,255.2Z" fill="#00bf7c"/>
  </g>
</svg>
