<svg xmlns="http://www.w3.org/2000/svg" viewBox="0 0 368 368">
  <g opacity="0.3">
    <path d="M78.8,222.48c-.56-1.52-1-3-1.52-4.56s-1-3-1.36-4.64a45.27,45.27,0,0,1-1.2-4.72c-.32-1.44-.64-3-.88-4.48-.24-1.2-.48-2.4-.64-3.6-.16-1-.32-2.16-.4-3.2s-.24-2.16-.32-3.28c-.16-1.36-.24-2.8-.32-4.24-.08-1.92-.16-3.84-.16-5.76s.08-3.84.16-5.76c.08-1.44.16-2.88.32-4.24.08-1.12.16-2.16.32-3.28s.24-2.16.4-3.2c.16-1.2.4-2.4.64-3.6.24-1.52.56-3,.88-4.48a45.27,45.27,0,0,1,1.2-4.72c.4-1.6.88-3.12,1.36-4.64s1-3,1.52-4.56C35.84,154.24,8,168.24,8,184S35.84,213.76,78.8,222.48Z" fill="#00bf7c"/>
    <path d="M184,360c15.76,0,29.76-27.84,38.48-70.8-1.52.56-3,1-4.56,1.52s-3,1-4.64,1.36a45.27,45.27,0,0,1-4.72,1.2c-1.44.32-3,.64-4.48.88-1.2.24-2.4.48-3.6.64-1,.16-2.16.32-3.2.4s-2.16.24-3.28.32c-1.36.16-2.8.24-4.24.32-1.92.08-3.84.16-5.76.16s-3.84-.08-5.76-.16c-1.44-.08-2.88-.16-4.24-.32-1.12-.08-2.16-.16-3.28-.32s-2.16-.24-3.2-.4c-1.2-.16-2.4-.4-3.6-.64-1.52-.24-3-.56-4.48-.88a45.27,45.27,0,0,1-4.72-1.2c-1.6-.4-3.12-.88-4.64-1.36s-3-1-4.56-1.52C154.24,332.16,168.24,360,184,360Z" fill="#00bf7c"/>
    <path d="M289.2,145.52c.56,1.52,1,3,1.52,4.56s1,3,1.36,4.64a45.27,45.27,0,0,1,1.2,4.72c.32,1.44.64,3,.88,4.48.24,1.2.48,2.4.64,3.6.16,1,.32,2.16.4,3.2s.24,2.16.32,3.28c.16,1.36.24,2.8.32,4.24.08,1.92.16,3.84.16,5.76s-.08,3.84-.16,5.76c-.08,1.44-.16,2.88-.32,4.24-.08,1.12-.16,2.16-.32,3.28s-.24,2.16-.4,3.2c-.16,1.2-.4,2.4-.64,3.6-.24,1.52-.56,3-.88,4.48a45.27,45.27,0,0,1-1.2,4.72c-.4,1.6-.88,3.12-1.36,4.64s-1,3-1.52,4.56c43-8.72,70.8-22.72,70.8-38.48S332.16,154.24,289.2,145.52Z" fill="#00bf7c"/>
    <path d="M154.72,75.92a45.27,45.27,0,0,1,4.72-1.2c1.44-.32,3-.64,4.48-.88,1.2-.24,2.4-.48,3.6-.64,1-.16,2.16-.32,3.2-.4s2.16-.24,3.28-.32c1.36-.16,2.8-.24,4.24-.32,1.92-.08,3.84-.16,5.76-.16s3.84.08,5.76.16c1.44.08,2.88.16,4.24.32,1.12.08,2.16.16,3.28.32s2.16.24,3.2.4c1.2.16,2.4.4,3.6.64,1.52.24,3,.56,4.48.88a45.27,45.27,0,0,1,4.72,1.2c1.6.4,3.12.88,4.64,1.36s3,1,4.56,1.52C213.76,35.84,199.76,8,184,8s-29.76,27.84-38.48,70.8c1.52-.56,3-1,4.56-1.52S153.12,76.32,154.72,75.92Z" fill="#00bf7c"/>
  </g>
  <g>
    <path d="M294.91,138.55a119.38,119.38,0,0,0-65.46-65.46C222.07,38.8,208.35,0,184,0s-38.07,38.8-45.45,73.1a119.39,119.39,0,0,0-65.46,65.46C38.8,145.93,0,159.65,0,184s38.79,38.07,73.09,45.45a119.38,119.38,0,0,0,65.46,65.46C145.93,329.2,159.65,368,184,368s38.07-38.8,45.45-73.1a119.39,119.39,0,0,0,65.46-65.46C329.2,222.07,368,208.35,368,184S329.21,145.93,294.91,138.55ZM64.53,173.12c-.16,1.38-.25,2.82-.37,4.81S64,182,64,184c0,1.66.06,3.4.14,5.37,0,.23,0,.47,0,.7,0,0,0,0,0,0,0,.18,0,.31,0,.5.09,1.46.17,2.91.31,4.06,0,.07,0,.13,0,.2h0c0,.38.06.74.09,1.1,0,.17,0,.35,0,.5.06.59.1,1.12.17,1.46.11,1.23.29,2.56.46,3.58l0,.14s0,0,0,.07h0c.18,1.3.43,2.6.63,3.55.26,1.7.62,3.4.94,4.83.1.52.22,1,.34,1.52C32.17,202.91,16,191.57,16,184s16.18-18.92,51.26-27.66c-.1.46-.26.93-.35,1.37-.36,1.61-.72,3.3-.91,4.64s-.54,2.77-.7,3.94-.38,2.55-.42,3.26c-.17,1.13-.26,2.34-.35,3.58ZM184,16c7.57,0,18.92,16.18,27.66,51.26-.45-.1-.93-.26-1.36-.35-1.61-.36-3.29-.71-4.76-.94s-2.66-.52-3.84-.68-2.57-.38-3.29-.42c-1.32-.18-2.54-.29-3.47-.34h-.13l-.26,0h0c-1.41-.15-2.86-.26-4.42-.34C186,64,182,64,177.9,64.16h-.09c-1.62.09-3.22.18-4.37.33l-1.86.14c-.62.06-1.14.11-1.47.18-1.24.1-2.57.28-3.65.45h-.06l-.1,0h0c-1.27.18-2.54.42-3.58.63-1.7.26-3.38.62-4.83.94-.51.1-1,.22-1.5.34C165.09,32.17,176.43,16,184,16Zm0,336c-7.57,0-18.92-16.18-27.66-51.26.45.1.93.26,1.36.35,1.61.36,3.29.71,4.76.94s2.66.52,3.84.68,2.57.38,3.29.42c1.32.18,2.54.29,3.47.34h.13l.26,0h.14c1.38.14,2.79.25,4.3.33,2,.08,4.06.16,6.1.16s4.07-.08,6.1-.17h.09c1.62-.09,3.22-.18,4.37-.33l1.86-.14c.62-.06,1.14-.11,1.47-.18,1.24-.1,2.57-.28,3.65-.45h.06l.1,0h0c1.27-.18,2.54-.42,3.58-.63,1.7-.26,3.38-.62,4.83-.94.51-.1,1-.22,1.5-.34C202.91,335.83,191.57,352,184,352ZM287.83,189.66c-.07,1.17-.14,2.32-.3,3.79-.07.93-.14,1.79-.31,3.17-.06.85-.19,1.76-.36,2.82s-.34,2-.62,3.42-.5,2.69-.82,4.13a40.21,40.21,0,0,1-1.13,4.35c-.35,1.43-.78,2.79-1.22,4.18s-.88,2.81-1.4,4.21a103.73,103.73,0,0,1-62,62c-1.3.48-2.59.89-4.28,1.42-1.34.42-2.66.84-4.54,1.33a39.78,39.78,0,0,1-4,1c-1.28.28-2.62.57-4,.78l-.44.08c-1,.19-2,.4-3.16.56-.83.13-1.74.26-3.1.38l-.34,0c-.76.1-1.56.17-2.37.22h0l-.36,0c-1.19.14-2.46.21-3.65.27-3.58.15-7.22.15-10.81,0-1.25-.07-2.5-.14-4.06-.31-.92-.06-1.78-.13-3.23-.32-.83-.06-1.74-.2-2.74-.35s-2-.34-3.42-.62-2.7-.5-4.14-.82a44.81,44.81,0,0,1-4.37-1.12c-1.11-.28-2.17-.58-3.22-.94l-1.23-.38c-1.29-.41-2.58-.82-3.92-1.31a103.69,103.69,0,0,1-62-61.94c-.51-1.4-1-2.81-1.41-4.24s-.86-2.72-1.36-4.65a37.9,37.9,0,0,1-1-4c-.27-1.22-.54-2.5-.74-3.78,0-.19-.06-.34-.1-.54-.21-1-.42-2-.58-3.26-.14-.85-.26-1.77-.39-3.14-.12-.78-.17-1.6-.26-2.71,0,0,0,0,0,0s0-.17,0-.27c-.13-1.1-.18-2.26-.27-3.66-.06-1.8-.14-3.61-.14-5.42s.08-3.62.17-5.66c.07-1.17.14-2.32.3-3.79.07-.93.14-1.79.31-3.17.06-.85.19-1.76.36-2.82s.34-2,.62-3.42.5-2.69.82-4.13a40.21,40.21,0,0,1,1.13-4.35c.35-1.43.78-2.79,1.22-4.18s.88-2.81,1.4-4.21a103.73,103.73,0,0,1,62-62c1.3-.48,2.59-.89,4.28-1.42,1.34-.42,2.66-.84,4.54-1.33a39.78,39.78,0,0,1,4-1c1.28-.28,2.62-.57,4-.78l.44-.08c1-.19,2-.4,3.16-.56.83-.13,1.74-.26,3.1-.38l.34,0c.76-.1,1.56-.17,2.37-.22h0l.36,0c1.19-.14,2.46-.21,3.65-.27,3.58-.15,7.22-.15,10.81,0,1.25.07,2.5.14,4.06.31.92.06,1.78.13,3.23.32.83.06,1.74.2,2.74.35s2,.34,3.42.62,2.7.5,4.14.82a44.81,44.81,0,0,1,4.37,1.12c1.11.28,2.17.58,3.22.94l1.23.38c1.29.41,2.58.82,3.92,1.31a103.69,103.69,0,0,1,62,61.94c.51,1.4,1,2.81,1.41,4.24s.86,2.72,1.36,4.65a37.89,37.89,0,0,1,1,4c.27,1.22.54,2.5.74,3.78,0,.19.06.34.1.54.21,1,.42,2,.58,3.26.14.85.26,1.77.39,3.14.12.78.17,1.6.23,2.43l0,.28s0,0,0,0,0,.17,0,.27c.13,1.1.18,2.26.27,3.66.06,1.8.14,3.61.14,5.42S287.92,187.62,287.83,189.66Zm12.9,22c.1-.46.26-.93.35-1.37.36-1.61.72-3.3.91-4.64s.54-2.77.7-3.94.38-2.55.42-3.26a.22.22,0,0,1,0-.07h0a.57.57,0,0,0,0-.12c.16-1.09.25-2.23.36-3.66h0c.14-1.3.23-2.67.34-4.54.09-2,.17-4,.17-6.06,0-1.66-.06-3.4-.14-5.37,0-.23,0-.47,0-.7,0,0,0,0,0,0,0-.18,0-.31,0-.5-.09-1.46-.17-2.91-.31-4.06,0-.07,0-.13,0-.2h0c0-.38-.06-.74-.09-1.1,0-.17,0-.35,0-.5-.06-.59-.1-1.12-.17-1.46-.11-1.23-.29-2.56-.46-3.58l0-.14s0,0,0-.07h0c-.18-1.3-.43-2.6-.63-3.56-.26-1.7-.62-3.4-.94-4.83-.1-.52-.22-1-.34-1.52,35,8.74,51.22,20.08,51.22,27.65S335.82,202.92,300.74,211.66Z" fill="#00bf7c"/>
    <path d="M248,176a8,8,0,0,0-8,8,56,56,0,1,1-56-56,8,8,0,0,0,0-16,72,72,0,1,0,72,72A8,8,0,0,0,248,176Z" fill="#00bf7c"/>
    <path d="M160,184a24,24,0,1,0,24-24A24,24,0,0,0,160,184Zm32,0a8,8,0,1,1-8-8A8,8,0,0,1,192,184Z" fill="#00bf7c"/>
  </g>
</svg>
