<svg xmlns="http://www.w3.org/2000/svg" viewBox="0 0 368 367.96">
  <path d="M105,196.14a16.19,16.19,0,0,0,.32,2.08c.32,1.68.64,3.36,1.12,5a2.34,2.34,0,0,0,.16.72c.48,1.84,1,3.6,1.6,5.36a80,80,0,0,0,151.68,0c.56-1.76,1.12-3.52,1.6-5.36a2.34,2.34,0,0,0,.16-.72c.48-1.68.8-3.36,1.12-5a16.19,16.19,0,0,0,.32-2.08,55.92,55.92,0,0,0,.72-6.4q.24-2.88.24-5.76a80,80,0,0,0-160,0q0,2.88.24,5.76A55.92,55.92,0,0,0,105,196.14Z" transform="translate(0 -0.02)" fill="#00bf7c" opacity="0.3"/>
  <g>
    <path d="M363.83,97l-176-96a8,8,0,0,0-1.26-.49c-.16-.06-.3-.14-.46-.18A8.16,8.16,0,0,0,183.44,0c-.21,0-.4.06-.61.09a8,8,0,0,0-2.38.74c-.09,0-.19,0-.29.09l-176,96A8,8,0,0,0,0,104V264a8,8,0,0,0,.32,2.18c0,.11.1.21.14.32a8,8,0,0,0,1.1,2.14c.13.18.26.36.4.54a8,8,0,0,0,2,1.71l.18.07s0,.06.09.07l176,96a8,8,0,0,0,7.66,0l176-96s0-.06.09-.07l.18-.07a8,8,0,0,0,2-1.71c.14-.18.27-.35.4-.54a7.74,7.74,0,0,0,1.1-2.14c0-.11.1-.21.14-.32A8.27,8.27,0,0,0,368,264V104A8,8,0,0,0,363.83,97ZM184,112a72.08,72.08,0,0,1,72,72c0,1.7-.07,3.38-.22,5.18a53,53,0,0,1-.7,6.11,13.76,13.76,0,0,1-.22,1.45c-.27,1.46-.54,2.9-1,4.35a7.21,7.21,0,0,0-.2.9h0c-.41,1.58-.9,3.1-1.46,4.9a72,72,0,0,1-136.54-.18s0,0,0-.06c-.09-.27-.18-.58-.27-.86a32.58,32.58,0,0,1-1-3.5s0,0,0-.06l0-.17a8.15,8.15,0,0,0-.21-1c-.42-1.45-.68-2.9-1-4.64,0-.14-.06-.3-.08-.47s-.06-.45-.09-.68c0,0,0,0,0,0,0-.19,0-.33-.08-.6a46.64,46.64,0,0,1-.61-5.58v0h0c-.14-1.61-.21-3.37-.21-5A72.08,72.08,0,0,1,184,112ZM16,108.73,176,21.46V96.39A88.08,88.08,0,0,0,96,184c0,2.15.09,4.3.26,6.34a.16.16,0,0,0,0,.06v.1A56.31,56.31,0,0,0,97,197h0a20.77,20.77,0,0,0,.39,2.58s0,.09,0,.12c.36,1.88.73,3.75,1.25,5.63l0,0L16,250.5ZM184,350.87,24.7,264l79.39-43.31a87.89,87.89,0,0,0,159.82,0L343.3,264ZM352,250.5l-82.68-45.11,0-.11c0-.09,0-.16.06-.25.49-1.78.84-3.47,1.07-4.82v0a1.46,1.46,0,0,1,0-.2,15.52,15.52,0,0,0,.38-2.35,1.28,1.28,0,0,1,0-.18c0-.15.06-.29.07-.44s0-.07,0-.1c.36-2.14.58-4.32.74-6.44v0c.18-2.06.26-4.3.26-6.46a88.12,88.12,0,0,0-80-87.64V21.46l160,87.27V250.5Z" transform="translate(0 -0.02)" fill="#00bf7c"/>
    <path d="M184,224a40,40,0,0,0,40-40,8,8,0,0,0-16,0,24,24,0,1,1-24-24,8,8,0,0,0,0-16,40,40,0,0,0,0,80Z" transform="translate(0 -0.02)" fill="#00bf7c"/>
  </g>
</svg>
