<svg xmlns="http://www.w3.org/2000/svg" viewBox="0 0 160 168"><rect width="160" height="168" fill="none"/><path d="M81.77,73.19h0Zm-33,17A6.15,6.15,0,0,0,51,91.39a10.7,10.7,0,0,0,2.92.38,6,6,0,0,0,2.33-.41,5.3,5.3,0,0,0,1.67-1.08A5.21,5.21,0,0,0,59,88.79a6.53,6.53,0,0,0,.54-1.69l-2.05-.17a2.92,2.92,0,0,1-1,2.06,3.23,3.23,0,0,1-2,.63A2.86,2.86,0,0,1,52,88.47a6.42,6.42,0,0,1-.84-3.74,5.31,5.31,0,0,1,1-3.45,3.09,3.09,0,0,1,2.51-1.18A2.91,2.91,0,0,1,57.1,81a1.56,1.56,0,0,0-1.11.54,1.66,1.66,0,0,0,0,2.27,1.88,1.88,0,0,0,1.41.49,1.81,1.81,0,0,0,1.5-.6,2.26,2.26,0,0,0,.48-1.46A3.22,3.22,0,0,0,59,80.58a3.49,3.49,0,0,0-1.2-1.2A6,6,0,0,0,56,78.67a10,10,0,0,0-2.3-.24,8.36,8.36,0,0,0-3,.5,6.06,6.06,0,0,0-2.18,1.41,5.8,5.8,0,0,0-1.32,2.15,8.18,8.18,0,0,0-.44,2.74,7.57,7.57,0,0,0,.52,3A5.28,5.28,0,0,0,48.74,90.22ZM32.48,85.85,28.78,73.19H19.86v2c1.45,0,2.18.37,2.18,1.13V88.23c0,.75-.73,1.12-2.18,1.12v2H26.8v-2q-2.18,0-2.18-1.12V76.56l4.55,14.79h4l4.55-14.79V88.23q0,1.12-2.18,1.12v2h9.12v-2c-1.47,0-2.2-.37-2.2-1.12V76.32c0-.75.73-1.13,2.2-1.13v-2H36.17Zm82.2-8.61a2.27,2.27,0,0,0,1,.2,2.44,2.44,0,0,0,1.75-.73,2.63,2.63,0,0,0,.52-.8,2.36,2.36,0,0,0,.2-1,2.27,2.27,0,0,0-.2-1h0a2.52,2.52,0,0,0-.52-.77,2.57,2.57,0,0,0-.78-.52,2.42,2.42,0,0,0-1-.2,2.33,2.33,0,0,0-1,.2,2.8,2.8,0,0,0-.78.52,2.44,2.44,0,0,0-.54.77,2.33,2.33,0,0,0-.2,1,2.42,2.42,0,0,0,.2,1A2.55,2.55,0,0,0,114.68,77.24Zm23.1,11v-6h0a3.48,3.48,0,0,0-1-2.77,4.32,4.32,0,0,0-2.91-.86,6.65,6.65,0,0,0-3.14.71,5.9,5.9,0,0,0-2.2,2V78.91H122v2c1.37,0,2.05.36,2.05,1.1v6.29q0,1.1-2.08,1.09v2h7.92v-2q-1.37,0-1.37-1.09v-3.8a4.73,4.73,0,0,1,1.29-2.19,2.77,2.77,0,0,1,1.91-.8,1.29,1.29,0,0,1,1.17.71,4.6,4.6,0,0,1,.42,2.24v3.85q0,1.1-1.39,1.09v2h8v-2C138.49,89.35,137.78,89,137.78,88.25Zm-19.9,0V78.91h-6.55v2q2.08,0,2.08,1.12v6.26q0,1.1-2.08,1.09v2H120v-2Q117.83,89.35,117.88,88.25ZM107.72,80q1.58,1.61,1.58,5.14h-8.87a6.56,6.56,0,0,0,.76,3.34,2.47,2.47,0,0,0,2.25,1.11,3.74,3.74,0,0,0,2.12-.62,3.06,3.06,0,0,0,1.26-1.9l2.05.22a6,6,0,0,1-.6,1.65,5.06,5.06,0,0,1-1.14,1.42,5.48,5.48,0,0,1-1.72,1,6.67,6.67,0,0,1-2.34.38,11.21,11.21,0,0,1-2.68-.31,5.89,5.89,0,0,1-2.26-1.09,5.28,5.28,0,0,1-1.55-2,7.77,7.77,0,0,1-.58-3.2,8,8,0,0,1,.45-2.77,5.64,5.64,0,0,1,3.48-3.46,8.49,8.49,0,0,1,2.93-.47A6.51,6.51,0,0,1,107.72,80Zm-2.17,3.45a5.42,5.42,0,0,0-.14-1.22,3.73,3.73,0,0,0-.44-1.09,2.38,2.38,0,0,0-.76-.77,2.07,2.07,0,0,0-1.13-.29,2.23,2.23,0,0,0-1.78.81,4.55,4.55,0,0,0-.83,2.57ZM91.82,88.25V72.53H85.27v2q2.08,0,2.08,1.1V88.25c0,.73-.69,1.1-2.08,1.1v2H93.9v-2C92.51,89.35,91.82,89,91.82,88.25Zm-10.22.82a3,3,0,0,1-.9-1L75,79.25l3.5-2.86A5,5,0,0,1,80,75.52a5.59,5.59,0,0,1,1.72-.33v-2H73.11v2h.66a1,1,0,0,1,.73.23.75.75,0,0,1,.24.57,1,1,0,0,1-.39.78l-5.69,4.77V76.32q0-1.13,2.18-1.13v-2H61.53v2c1.45,0,2.18.37,2.18,1.13V88.23c0,.75-.73,1.12-2.18,1.12v2h9.32v-2q-2.18,0-2.18-1.12V84.51l2.84-2.4,3.57,6a1.54,1.54,0,0,1,.22.66c0,.39-.29.58-.86.58h-1.1v2h10.1v-2h-.54A2.5,2.5,0,0,1,81.6,89.07ZM46.75,97.5H59.7V94.35H46.75Z" fill="#222"/></svg>