<svg xmlns="http://www.w3.org/2000/svg" viewBox="0 0 160 168"><rect width="160" height="168" fill="none"/><path d="M150.14,89.41a.32.32,0,0,0-.62,0c-1.57,2.41-4.24,5.33-7.27,5.19-1.94-.11-2.81-2.41-1.64-5.77h0c2.56,2.08,5,1.13,6.79-1.06,1.53-1.86,1.83-4.09,1.17-5a6.8,6.8,0,0,0-2.15-1.9c-1.83-1.06-5.55.84-7.93,5.55a9.75,9.75,0,0,0-1.06,3.66c-1.28,2.34-3.09,4.48-4.49,4.55-1.24.07-1.21-1.42-.22-3.54,1.83-3.87,5.33-9.9,7.09-13,1.53-2.74,1.64-4.31,1.13-5.52-.18-.47-.51-.51-.88,0C138.75,74.4,136,79.36,134,83.12a2.17,2.17,0,0,0-2.19-2.48c-1.83,0-4.75,1.64-7.63,5.88a11.09,11.09,0,0,0-1.75,4c-1.14,2.14-2.85,4-4.28,4-1.17.07-1.24-1.35-.37-3.47.77-1.83,2.3-4.31,3.07-5.92.88-1.83.58-3.4,0-4-.29-.33-.55-.22-.88.22a45.12,45.12,0,0,0-4.68,8.88c-.09.28-.17.54-.23.81-1.22,1.92-2.74,3.52-3.93,3.58s-1.21-1.5-.29-3.54,2.7-4.68,3.51-6.32c.88-1.83.58-3.4,0-4.05q-.38-.49-.88.22c-.4.58-.84,1.35-1.31,2.23A2.23,2.23,0,0,0,110,80.53c-1.83,0-4.71,1.64-7.67,6a11.58,11.58,0,0,0-1.6,3.3c-1.38,2.44-3,4.67-4.4,4.7s-1.83-1.64-.8-3.73c.91-1.83,2.7-4.24,3.36-5.88.73-1.83.44-4-.88-4s-3.65,1.68-5.41,3.4c.47-1.61-.18-3.54-1.42-3.58s-4.05,2.12-5.66,4a4.56,4.56,0,0,0,0-3.91c-.22-.37-.51-.4-.77,0a60.31,60.31,0,0,0-5.73,10.88c-.62,1.86-.44,3.07.37,3.76.33.29.55.15.69-.18A32.81,32.81,0,0,1,85.49,86c2.34-2.56,4.13-3.54,4.57-3.36.73.26-3.21,5.3-4.42,8.33-1.06,2.63-.55,4.05.07,4.6.33.37.62.26.84-.18a31.76,31.76,0,0,1,6.36-10c2.37-2.37,3.62-2.78,3.91-2.67.55.18-2.7,4.27-4.05,7.3s-.18,5.52,3,5.52a6.52,6.52,0,0,0,4.73-2.74,2.87,2.87,0,0,0,2.9,2.67c1.75,0,3.4-1.35,4.57-2.85a2.83,2.83,0,0,0,3,3,5.57,5.57,0,0,0,4-2.12,2.55,2.55,0,0,0,2.79,2,6.24,6.24,0,0,0,4.6-2.49,2.81,2.81,0,0,0,2.85,2.46c1.72,0,3.36-1.35,4.53-2.81,0,1.72,1,2.81,3,2.92,1.82.1,3.84-1.48,4.94-3.27a4.48,4.48,0,0,0,4.7,3.24,9.26,9.26,0,0,0,7.16-3.94A3,3,0,0,0,150.14,89.41Zm-8.91-2c1.72-3.47,4.75-5.66,5.52-5,.51.4-.29,2.3-1.46,3.84s-2.56,3-4.35,1.83C141,87.8,141.12,87.58,141.23,87.36Zm-32.18,1.46c-1.86,3.21-3.76,5.55-5.26,5.51s-.95-3.25,1-6.39,4.68-5.62,5.84-5.52.73,2.37-1.57,6.39Zm16.58,5.51c-1.42,0-1-3.21.95-6.35s4.67-5.51,5.81-5.48.51,2.34-1.61,6.39C129.07,92.22,127.09,94.37,125.63,94.34ZM39,80.17a2.27,2.27,0,0,1,.18-2.7c.58-.62,1.64-.18,2.12.8h0a2.21,2.21,0,0,1-.26,2.45A1.32,1.32,0,0,1,39,80.17Zm82.4,0a2.27,2.27,0,0,1,.18-2.7c.58-.62,1.64-.18,2.12.8h0a2.21,2.21,0,0,1-.26,2.45A1.32,1.32,0,0,1,121.43,80.17ZM72.13,89.63c-1.17,2.67-3,5.11-4.49,5-1.17-.07-1.61-1.5-.91-3.51a21.64,21.64,0,0,1,4.13-6.36c1.1-1.24.18-3-.47-3.73-.29-.37-.62-.26-1.1.07a9.53,9.53,0,0,1-3.94,1.75c.73-1.94,1.39-4.6.11-4.57-1.46,0-5,4.86-2.34,6a4.16,4.16,0,0,1-2.85,2.26c0-.22.07-.4.07-.58.18-2.67-.88-2.89-1.75-4a2.43,2.43,0,0,0-2.45-1.24c-2.19.18-4.49,2.23-5.88,4.75a11.49,11.49,0,0,0-1.46,4.6c-1.47,2.44-3.66,4.51-5.23,4.38s-1.24-3.18.22-6.76c3.25-2.12,7.34-6.5,8.47-11,.44-1.72.22-3.07-.84-4-.51-.47-1-.4-1.57.18a38.35,38.35,0,0,0-9.14,16.42.42.42,0,0,0-.21.2c-1.1,2.52-3.1,4.93-4.75,5-1.17.07-1.24-1.35-.37-3.47.77-1.83,2.3-4.31,3.07-5.92.88-1.83.58-3.4,0-4-.29-.33-.55-.22-.88.22a45.09,45.09,0,0,0-4.68,8.88c-.09.28-.17.54-.23.81C31.49,93,30,94.57,28.77,94.63s-1.21-1.5-.29-3.54,2.7-4.68,3.51-6.32c.88-1.83.58-3.4,0-4.05q-.38-.49-.88.22a25.64,25.64,0,0,0-1.32,2.23,2.23,2.23,0,0,0-2.23-2.63c-1.83,0-4.71,1.64-7.67,6a10.93,10.93,0,0,0-1.8,4.22c-1.3,2.17-3,4-4.33,3.89-1.53-.07-1.94-2.34-.73-5C14.45,86.52,16.54,83,18,80.53a10.9,10.9,0,0,1,2.85-.15c.55,0,.69-.26.44-.69A2.29,2.29,0,0,0,19,78.6c.88-1.9.88-3.1.47-4.13-.18-.44-.55-.47-.88,0A46.92,46.92,0,0,0,15.81,79a20.82,20.82,0,0,1-3,.15c-.55,0-.77.22-.4.73a3,3,0,0,0,2.37,1c-1.57,2.89-3.1,6-3.87,7.78-1.75,4.2.18,6.9,2.59,7,1.9.07,3.59-1.27,4.66-2.5A2.82,2.82,0,0,0,21,95.54c1.75,0,3.4-1.35,4.57-2.85a2.83,2.83,0,0,0,3,3,5.57,5.57,0,0,0,4-2.12,2.55,2.55,0,0,0,2.79,2,6.4,6.4,0,0,0,5-3.07,3,3,0,0,0,3.23,3c2.26.06,4.36-1.74,5.43-3.06a4.66,4.66,0,0,0,.63,1.27,4,4,0,0,0,4.64,1.57c2.7-.88,5-4.64,5.7-7.74a5.61,5.61,0,0,0,4.53-3A8.37,8.37,0,0,0,69,83.16c-1.53,1.79-3.84,4.49-4.57,6.94-.91,3,.22,5.44,3,5.59,2,.11,4.13-1.57,5.11-3.76a3.18,3.18,0,0,0,.11-2.37C72.53,89.22,72.27,89.3,72.13,89.63ZM45.32,84.4c2.52-4.68,5.22-8.73,5.7-8.44s-1.57,6.14-6.57,10.19A19.52,19.52,0,0,1,45.32,84.4ZM26.65,88.82c-1.86,3.21-3.76,5.55-5.26,5.51s-.95-3.25,1-6.39,4.68-5.62,5.84-5.52.73,2.37-1.57,6.39Zm29.73,1.24c-1.83,3.32-4.09,4.64-5,3.8s-.44-4.16,1.13-6.94a13.5,13.5,0,0,1,2.81-3.43,4.53,4.53,0,0,0,2.37,3.58A15.29,15.29,0,0,1,56.38,90.07ZM58,86a2.71,2.71,0,0,1-.91-2.41c.15-1.06.95-1.35,1.1-.15A8.32,8.32,0,0,1,58,86Z" fill="#222"/></svg>